<svg width="155" height="113" viewBox="0 0 155 113" fill="none" xmlns="http://www.w3.org/2000/svg">
<path d="M4.09359 86.0747C-4.86109 68.1479 0.708999 47.8081 22.4467 40.6638C39.1494 35.174 64.7657 34.7142 75.425 17.8506C92.7035 -9.48547 135.859 -6.42876 151.36 33.9917C165.464 70.7711 136.171 129.215 96.5543 109.112C63.5413 92.3595 58.2299 110.983 36.7671 109.628C20.2155 108.584 7.11443 92.1223 4.09359 86.0747Z" fill="#F3F5FD"/>
<path d="M4.09359 86.0747C-4.86109 68.1479 0.708999 47.8081 22.4467 40.6638C39.1494 35.174 64.7657 34.7142 75.425 17.8506C92.7035 -9.48547 135.859 -6.42876 151.36 33.9917C165.464 70.7711 136.171 129.215 96.5543 109.112C63.5413 92.3595 58.2299 110.983 36.7671 109.628C20.2155 108.584 7.11443 92.1223 4.09359 86.0747Z" fill="#367CFF"/>
<g opacity="0.75">
<path d="M4.09359 86.0747C-4.86109 68.1479 0.708999 47.8081 22.4467 40.6638C39.1494 35.174 64.7657 34.7142 75.425 17.8506C92.7035 -9.48547 135.859 -6.42876 151.36 33.9917C165.464 70.7711 136.171 129.215 96.5543 109.112C63.5413 92.3595 58.2299 110.983 36.7671 109.628C20.2155 108.584 7.11443 92.1223 4.09359 86.0747Z" fill="#292A2E"/>
</g>
<g opacity="0.18">
<path d="M51.3034 41.5304C51.6582 41.5304 51.9458 41.2463 51.9458 40.8959C51.9458 40.5454 51.6582 40.2614 51.3034 40.2614C50.9486 40.2614 50.6609 40.5454 50.6609 40.8959C50.6609 41.2463 50.9486 41.5304 51.3034 41.5304Z" fill="white"/>
<path d="M57.318 53.8018C57.9631 53.8018 58.486 53.2853 58.486 52.6483C58.486 52.0112 57.9631 51.4947 57.318 51.4947C56.673 51.4947 56.15 52.0112 56.15 52.6483C56.15 53.2853 56.673 53.8018 57.318 53.8018Z" fill="white"/>
<path d="M94.2426 21.6329C94.8876 21.6329 95.4106 21.1165 95.4106 20.4794C95.4106 19.8423 94.8876 19.3258 94.2426 19.3258C93.5975 19.3258 93.0746 19.8423 93.0746 20.4794C93.0746 21.1165 93.5975 21.6329 94.2426 21.6329Z" fill="white"/>
<path d="M57.2194 85.8997C57.5534 85.8997 57.8242 85.6323 57.8242 85.3025C57.8242 84.9726 57.5534 84.7052 57.2194 84.7052C56.8855 84.7052 56.6147 84.9726 56.6147 85.3025C56.6147 85.6323 56.8855 85.8997 57.2194 85.8997Z" fill="white"/>
<path d="M110.53 72.3285C111.47 72.3285 112.232 71.5759 112.232 70.6476C112.232 69.7192 111.47 68.9666 110.53 68.9666C109.59 68.9666 108.828 69.7192 108.828 70.6476C108.828 71.5759 109.59 72.3285 110.53 72.3285Z" fill="white"/>
<path d="M50.3556 101.128C50.8791 101.128 51.3034 100.709 51.3034 100.192C51.3034 99.6747 50.8791 99.2556 50.3556 99.2556C49.8322 99.2556 49.4079 99.6747 49.4079 100.192C49.4079 100.709 49.8322 101.128 50.3556 101.128Z" fill="white"/>
<path d="M123.197 15.6667C124.131 15.6667 124.888 14.9191 124.888 13.9969C124.888 13.0747 124.131 12.3271 123.197 12.3271C122.263 12.3271 121.507 13.0747 121.507 13.9969C121.507 14.9191 122.263 15.6667 123.197 15.6667Z" fill="white"/>
<path d="M112.243 45.1695C112.716 45.1695 113.099 44.7908 113.099 44.3237C113.099 43.8565 112.716 43.4778 112.243 43.4778C111.77 43.4778 111.386 43.8565 111.386 44.3237C111.386 44.7908 111.77 45.1695 112.243 45.1695Z" fill="white"/>
<path d="M8.66973 63.7773C9.1427 63.7773 9.52613 63.3986 9.52613 62.9314C9.52613 62.4643 9.1427 62.0856 8.66973 62.0856C8.19675 62.0856 7.81332 62.4643 7.81332 62.9314C7.81332 63.3986 8.19675 63.7773 8.66973 63.7773Z" fill="white"/>
<path d="M82.1879 64.2224C82.8094 64.2224 83.3132 63.7248 83.3132 63.1109C83.3132 62.497 82.8094 61.9994 82.1879 61.9994C81.5663 61.9994 81.0625 62.497 81.0625 63.1109C81.0625 63.7248 81.5663 64.2224 82.1879 64.2224Z" fill="white"/>
<path d="M70.5311 95.5083C70.998 95.5083 71.3764 95.1345 71.3764 94.6735C71.3764 94.2124 70.998 93.8387 70.5311 93.8387C70.0643 93.8387 69.6859 94.2124 69.6859 94.6735C69.6859 95.1345 70.0643 95.5083 70.5311 95.5083Z" fill="white"/>
<path d="M128.948 51.3371C129.93 51.3371 130.726 50.5509 130.726 49.581C130.726 48.6111 129.93 47.8249 128.948 47.8249C127.966 47.8249 127.17 48.6111 127.17 49.581C127.17 50.5509 127.966 51.3371 128.948 51.3371Z" fill="white"/>
<path d="M138.467 27.6113C139.044 27.6113 139.513 27.1487 139.513 26.5782C139.513 26.0076 139.044 25.5451 138.467 25.5451C137.889 25.5451 137.421 26.0076 137.421 26.5782C137.421 27.1487 137.889 27.6113 138.467 27.6113Z" fill="white"/>
<path d="M79.9253 86.0443C80.5533 86.0443 81.0623 85.5415 81.0623 84.9213C81.0623 84.3011 80.5533 83.7983 79.9253 83.7983C79.2974 83.7983 78.7883 84.3011 78.7883 84.9213C78.7883 85.5415 79.2974 86.0443 79.9253 86.0443Z" fill="white"/>
<path d="M116.378 103.434C117.12 103.434 117.721 102.84 117.721 102.107C117.721 101.374 117.12 100.78 116.378 100.78C115.636 100.78 115.035 101.374 115.035 102.107C115.035 102.84 115.636 103.434 116.378 103.434Z" fill="white"/>
<path d="M143.972 70.2378C144.906 70.2378 145.663 69.4902 145.663 68.568C145.663 67.6458 144.906 66.8982 143.972 66.8982C143.039 66.8982 142.282 67.6458 142.282 68.568C142.282 69.4902 143.039 70.2378 143.972 70.2378Z" fill="white"/>
<path d="M141.403 46.34C141.981 46.34 142.449 45.8775 142.449 45.3069C142.449 44.7363 141.981 44.2738 141.403 44.2738C140.826 44.2738 140.357 44.7363 140.357 45.3069C140.357 45.8775 140.826 46.34 141.403 46.34Z" fill="white"/>
<path d="M101.538 99.4354C102.029 99.4354 102.427 99.0423 102.427 98.5574C102.427 98.0725 102.029 97.6794 101.538 97.6794C101.047 97.6794 100.649 98.0725 100.649 98.5574C100.649 99.0423 101.047 99.4354 101.538 99.4354Z" fill="white"/>
</g>
<path d="M115.234 34.8814C117.51 35.6541 119.83 36.2897 122.184 36.7845C121.119 37.82 119.784 38.5425 118.327 38.8714C116.87 39.2003 115.349 39.1225 113.935 38.6468C112.52 38.1711 111.268 37.3162 110.317 36.1776C109.366 35.0391 108.755 33.6618 108.551 32.1998C110.722 33.2265 112.953 34.122 115.234 34.8814Z" fill="#0CBC8B"/>
<path d="M124.155 33.6812C123.854 34.5605 123.397 35.3803 122.808 36.1032C120.326 35.612 117.882 34.955 115.491 34.1367C113.09 33.3437 110.747 32.3907 108.478 31.2844C108.457 30.3561 108.602 29.4315 108.906 28.5529C109.098 27.9971 109.351 27.4638 109.661 26.9628C109.812 26.7172 109.977 26.4803 110.156 26.2529C111.183 24.9404 112.6 23.9779 114.209 23.5C115.817 23.022 117.537 23.0526 119.127 23.5873C120.717 24.1221 122.098 25.1343 123.077 26.4824C124.056 27.8306 124.584 29.4472 124.587 31.1063C124.588 31.3938 124.572 31.6811 124.54 31.9669C124.476 32.5506 124.347 33.1255 124.155 33.6812Z" fill="#0CBC8B"/>
<path d="M130.355 36.2602C129.859 37.7002 126.445 37.655 122.184 36.7845C122.405 36.5701 122.614 36.3427 122.807 36.1035C126.849 36.875 129.356 36.7176 129.602 36.0068C129.841 35.3128 128.046 33.7376 124.54 31.967C124.572 31.6812 124.587 31.3939 124.587 31.1064C128.297 32.9312 130.835 34.8666 130.355 36.2602Z" fill="white"/>
<path d="M122.807 36.1035C122.614 36.3427 122.405 36.5701 122.184 36.7845C119.83 36.2897 117.51 35.6541 115.234 34.8814C112.953 34.1222 110.722 33.2269 108.551 32.2004C108.508 31.897 108.483 31.5914 108.477 31.2851C110.747 32.3915 113.09 33.3445 115.491 34.1377C117.882 34.9557 120.326 35.6125 122.807 36.1035Z" fill="white"/>
<path d="M108.551 32.2004C104.637 30.3218 101.905 28.3003 102.401 26.8603C102.882 25.4667 106.091 25.4641 110.155 26.2537C109.977 26.481 109.812 26.718 109.66 26.9635C105.789 26.2534 103.394 26.4201 103.155 27.1137C102.91 27.8244 104.801 29.4612 108.478 31.2851C108.483 31.5914 108.508 31.897 108.551 32.2004Z" fill="white"/>
<path d="M82.1879 48.6752C86.1831 48.6752 89.4219 45.4764 89.4219 41.5304C89.4219 37.5844 86.1831 34.3856 82.1879 34.3856C78.1926 34.3856 74.9538 37.5844 74.9538 41.5304C74.9538 45.4764 78.1926 48.6752 82.1879 48.6752Z" fill="#367CFF"/>
<g opacity="0.79">
<path d="M82.1879 48.6752C86.1831 48.6752 89.4219 45.4764 89.4219 41.5304C89.4219 37.5844 86.1831 34.3856 82.1879 34.3856C78.1926 34.3856 74.9538 37.5844 74.9538 41.5304C74.9538 45.4764 78.1926 48.6752 82.1879 48.6752Z" fill="white"/>
</g>
<g opacity="0.18">
<path d="M86.1192 40.0954C86.9537 40.0954 87.6302 39.4272 87.6302 38.603C87.6302 37.7788 86.9537 37.1107 86.1192 37.1107C85.2847 37.1107 84.6082 37.7788 84.6082 38.603C84.6082 39.4272 85.2847 40.0954 86.1192 40.0954Z" fill="#367CFF"/>
</g>
<g opacity="0.18">
<path d="M84.9404 34.922C84.9319 35.0729 84.8898 35.22 84.8169 35.3529C84.744 35.4857 84.6423 35.601 84.519 35.6903C84.3957 35.7797 84.2538 35.841 84.1037 35.8698C83.9535 35.8986 83.7987 35.8942 83.6505 35.8569C83.5023 35.8196 83.3642 35.7504 83.2463 35.6541C83.1284 35.5579 83.0336 35.437 82.9686 35.3002C82.9036 35.1635 82.8701 35.0142 82.8704 34.8631C82.8708 34.712 82.905 34.5629 82.9707 34.4265C83.6478 34.4981 84.3111 34.665 84.9404 34.922Z" fill="#367CFF"/>
</g>
<g opacity="0.18">
<path d="M79.655 43.2707C81.4304 43.2707 82.8696 41.8492 82.8696 40.0957C82.8696 38.3422 81.4304 36.9207 79.655 36.9207C77.8796 36.9207 76.4403 38.3422 76.4403 40.0957C76.4403 41.8492 77.8796 43.2707 79.655 43.2707Z" fill="#367CFF"/>
</g>
<path opacity="0.18" d="M87.5237 46.3544C86.8158 47.1222 85.9453 47.7264 84.9742 48.1244C84.8345 47.9605 84.7309 47.7697 84.6699 47.5642C84.6088 47.3587 84.5917 47.1428 84.6197 46.9304C84.6476 46.718 84.72 46.5137 84.8322 46.3304C84.9444 46.1471 85.0939 45.9888 85.2713 45.8657C85.4487 45.7425 85.6502 45.6571 85.8628 45.6149C86.0754 45.5728 86.2946 45.5747 86.5064 45.6207C86.7182 45.6666 86.918 45.7556 87.0932 45.8819C87.2683 46.0082 87.4149 46.1691 87.5237 46.3544Z" fill="#367CFF"/>
<path d="M137.513 77.2691C137.641 77.7134 137.724 78.1691 137.761 78.6295C137.889 80.2342 137.451 81.8331 136.52 83.1547C135.59 84.4762 134.225 85.4389 132.657 85.8794C131.09 86.3198 129.416 86.2108 127.921 85.5708C126.425 84.9308 125.2 83.7994 124.454 82.3686C123.98 81.4566 123.714 80.4532 123.674 79.4289C123.617 77.871 124.091 76.3393 125.02 75.0787C125.949 73.8181 127.278 72.9012 128.796 72.4747C130.314 72.0481 131.934 72.1365 133.395 72.7257C134.856 73.3148 136.075 74.3708 136.858 75.7248C137.138 76.2118 137.358 76.7303 137.513 77.2691Z" fill="#367CFF"/>
<g opacity="0.64">
<path d="M137.513 77.2691C137.641 77.7134 137.724 78.1691 137.761 78.6295C137.889 80.2342 137.451 81.8331 136.52 83.1547C135.59 84.4762 134.225 85.4389 132.657 85.8794C131.09 86.3198 129.416 86.2108 127.921 85.5708C126.425 84.9308 125.2 83.7994 124.454 82.3686C123.98 81.4566 123.714 80.4532 123.674 79.4289C123.617 77.871 124.091 76.3393 125.02 75.0787C125.949 73.8181 127.278 72.9012 128.796 72.4747C130.314 72.0481 131.934 72.1365 133.395 72.7257C134.856 73.3148 136.075 74.3708 136.858 75.7248C137.138 76.2118 137.358 76.7303 137.513 77.2691Z" fill="white"/>
</g>
<g opacity="0.28">
<path d="M136.857 75.7248L123.673 79.4297C123.636 78.4368 123.816 77.4475 124.2 76.5293L134.864 73.5329C135.68 74.1135 136.36 74.8611 136.857 75.7248Z" fill="white"/>
</g>
<g opacity="0.28">
<path d="M137.761 78.6295C137.839 79.5981 137.71 80.572 137.383 81.4883L126.298 84.6027C125.532 83.9937 124.903 83.2325 124.453 82.3686L137.761 78.6295Z" fill="white"/>
</g>
<path d="M49 55.1375C48.9539 55.1316 48.4435 63.4972 38.6036 62.7678C31.7916 62.2638 29.3627 55.1257 29.2066 55.1257C29.9412 54.9715 30.8488 54.7375 31.2095 54.6573C32.4079 54.3905 33.904 53.4138 34.2496 51.3563C34.449 50.1706 34.111 44.1041 34.2149 42.9044L44.6714 45.2095C44.5252 47.7433 43.5027 53.6175 47.0867 54.6571C47.6831 54.8291 48.3254 54.9872 49 55.1375Z" fill="#E98862"/>
<path opacity="0.52" d="M44.8179 52.2565C44.6543 51.7351 44.5488 51.1977 44.5035 50.6536C44.3886 49.4122 44.4115 48.1621 44.5719 46.9256C42.4466 46.6423 40.4444 45.7759 38.7928 44.4249C38.5986 45.1332 37.5308 48.2277 37.8265 48.9008C38.3851 50.1731 41.0113 52.2565 44.8179 52.2565Z" fill="#0C0C0C"/>
<path d="M48.0887 33.7769C48.0887 33.7769 50.4916 30.9484 50.0497 25.7948C49.7077 21.8046 46.6824 25.1272 46.6824 25.1272C46.6824 25.1272 46.4078 22.2564 44.4188 23.0001C42.4298 23.7438 41.959 26.9314 41.959 26.9314" fill="#0C0C0C"/>
<path d="M33.8717 25.7395C33.8717 25.7395 23.9269 29.1361 30.7916 41.9448L31.7078 41.7995L33.5674 41.5045" fill="#0C0C0C"/>
<path d="M43.4296 49.4238C39.3267 49.9814 33.9304 48.5659 32.6055 43.192L31.41 38.343C30.0852 32.9689 31.8689 27.9252 36.9921 26.6931C42.1151 25.4609 47.0184 28.8966 48.3432 34.2706L48.8725 36.4173C49.0412 37.1575 49.1586 37.9082 49.224 38.6642C49.4117 40.661 49.6891 43.6986 48.822 45.9931C48.0033 48.1593 46.051 49.0678 43.4296 49.4238Z" fill="#E98862"/>
<path opacity="0.52" d="M44.1472 44.0735C44.9854 43.9221 45.7759 43.5782 46.455 43.0696C46.4835 43.049 46.5025 43.0181 46.508 42.9836C46.5134 42.9492 46.5047 42.914 46.4839 42.8858C46.463 42.8576 46.4317 42.8388 46.3968 42.8335C46.3619 42.8281 46.3263 42.8367 46.2978 42.8572C44.8261 43.9153 43.3209 44.1513 41.9453 43.5404C41.9174 43.5272 41.8888 43.5155 41.8596 43.5053C41.8261 43.4959 41.7901 43.4999 41.7595 43.5164C41.7288 43.5329 41.706 43.5607 41.6959 43.5937C41.6858 43.6267 41.6892 43.6623 41.7054 43.6928C41.7216 43.7233 41.7492 43.7464 41.7825 43.757C41.7932 43.7607 41.8111 43.7689 41.8361 43.7801C42.5597 44.1029 43.3644 44.2051 44.1472 44.0735Z" fill="#0C0C0C"/>
<path opacity="0.52" d="M44.3913 45.2965C44.5433 45.2716 44.6929 45.2339 44.8384 45.1838C44.8702 45.1713 44.896 45.1472 44.9103 45.1164C44.9246 45.0857 44.9263 45.0507 44.9152 45.0187C44.904 44.9867 44.8808 44.9602 44.8504 44.9447C44.8199 44.9292 44.7846 44.9258 44.7518 44.9354C43.8757 45.2338 43.3527 44.9248 43.3305 44.9114C43.3007 44.8943 43.2653 44.8893 43.2317 44.8975C43.1982 44.9056 43.1692 44.9263 43.1508 44.9552C43.1325 44.9841 43.1262 45.0189 43.1333 45.0523C43.1405 45.0857 43.1604 45.115 43.1891 45.1341C43.5588 45.3238 43.9836 45.3812 44.3913 45.2965Z" fill="#0C0C0C"/>
<path d="M47.4701 36.9635C47.8288 36.9635 48.1195 36.6764 48.1195 36.3221C48.1195 35.9679 47.8288 35.6808 47.4701 35.6808C47.1115 35.6808 46.8208 35.9679 46.8208 36.3221C46.8208 36.6764 47.1115 36.9635 47.4701 36.9635Z" fill="#0C0C0C"/>
<path d="M41.2964 38.4018C41.6551 38.4018 41.9458 38.1147 41.9458 37.7604C41.9458 37.4062 41.6551 37.1191 41.2964 37.1191C40.9378 37.1191 40.647 37.4062 40.647 37.7604C40.647 38.1147 40.9378 38.4018 41.2964 38.4018Z" fill="#0C0C0C"/>
<path d="M33.3274 44.7526C31.7711 45.1269 30.1028 43.7855 29.7236 42.2479C29.3445 40.7102 30.3977 39.5586 31.9546 39.1842L33.0112 40.0216L34.6664 44.4309L33.3274 44.7526Z" fill="#E98862"/>
<path d="M34.3035 41.9215C34.3035 41.9215 33.0543 34.1751 35.286 33.1721C36.7723 32.5045 41.0628 33.8295 44.4119 32.3738C45.8771 31.7372 47.4192 31.781 47.7336 32.4623C47.8583 32.7321 47.8653 28.4473 44.7469 25.9053C42.2632 23.8815 35.8496 24.6081 33.193 26.0606C25.8362 30.0817 31.7115 39.5933 31.7115 39.5933L32.6753 42.1427L34.3035 41.9215Z" fill="#0C0C0C"/>
<g opacity="0.52">
<path d="M44.6719 42.0592L44.682 42.0572C45.1839 41.938 46.0125 41.6824 45.9225 41.312C45.8474 41.0047 44.1871 37.8896 43.9978 37.5355C43.981 37.5059 43.9532 37.4841 43.9203 37.4745C43.8874 37.4649 43.852 37.4684 43.8217 37.4842C43.7914 37.5 43.7685 37.5269 43.7579 37.5591C43.7474 37.5913 43.75 37.6264 43.7652 37.6567C44.5018 39.036 45.6157 41.164 45.6673 41.3728C45.6393 41.4722 45.1408 41.6816 44.621 41.8052C44.5881 41.8132 44.5596 41.8335 44.5414 41.8617C44.5233 41.8899 44.5168 41.924 44.5235 41.9568C44.5301 41.9896 44.5493 42.0186 44.577 42.0378C44.6047 42.057 44.6389 42.0649 44.6724 42.0598L44.6719 42.0592Z" fill="#0C0C0C"/>
</g>
<path d="M45.437 35.2262C45.7936 34.9559 46.216 34.7833 46.6617 34.7256C46.8883 34.6944 47.1185 34.6974 47.3442 34.7343C47.5743 34.771 47.7989 34.836 48.0126 34.9278L48.0293 34.9343C48.0839 34.956 48.1449 34.9559 48.1994 34.9341C48.254 34.9123 48.2979 34.8705 48.3218 34.8174C48.3457 34.7643 48.3479 34.7041 48.3278 34.6495C48.3078 34.5948 48.267 34.55 48.2142 34.5244C47.9706 34.3973 47.7118 34.3011 47.4439 34.238C47.1714 34.1729 46.8906 34.1486 46.6108 34.1658C46.3301 34.1801 46.0527 34.2323 45.7864 34.321C45.5115 34.4096 45.2508 34.5365 45.0122 34.6978C44.9375 34.7485 44.8861 34.8265 44.8695 34.9145C44.853 35.0026 44.8725 35.0936 44.9238 35.1674C44.9751 35.2413 45.054 35.292 45.1432 35.3083C45.2324 35.3247 45.3245 35.3054 45.3992 35.2548C45.4063 35.2499 45.4132 35.2448 45.42 35.2392L45.437 35.2262Z" fill="#0C0C0C"/>
<path d="M41.586 35.4584C41.3014 35.4078 41.0109 35.3976 40.7234 35.4282C40.4437 35.4549 40.1689 35.5195 39.907 35.6201C39.6448 35.7176 39.399 35.8534 39.1777 36.023C38.9593 36.1889 38.763 36.3815 38.5936 36.5962C38.556 36.6408 38.5374 36.6981 38.5417 36.756C38.546 36.8139 38.5728 36.8679 38.6165 36.9067C38.6603 36.9454 38.7175 36.966 38.7762 36.964C38.835 36.962 38.8906 36.9376 38.9316 36.896L38.9448 36.8825C39.1015 36.7122 39.2793 36.5621 39.474 36.4356C39.6646 36.3104 39.8733 36.2145 40.0931 36.1512C40.5235 36.0234 40.9804 36.0098 41.4178 36.1119L41.438 36.1172C41.5257 36.14 41.619 36.1274 41.6974 36.0823C41.7757 36.0372 41.8326 35.9632 41.8557 35.8766C41.8788 35.7899 41.8661 35.6978 41.8204 35.6204C41.7747 35.5431 41.6998 35.4868 41.6121 35.464C41.6036 35.4619 41.5941 35.4608 41.586 35.4584Z" fill="#0C0C0C"/>
<path d="M42.6823 29.1595C43.7825 28.6584 44.0689 26.9555 43.3221 25.3561C42.5752 23.7567 41.078 22.8663 39.9778 23.3675C38.8776 23.8686 38.5912 25.5714 39.338 27.1708C40.0848 28.7702 41.5821 29.6606 42.6823 29.1595Z" fill="#0C0C0C"/>
<path d="M58.4626 56.5575C56.3608 55.3278 48.5906 54.6571 47.0863 54.6571C47.0407 54.6571 47.66 61.1205 38.3792 60.6889C31.56 60.3706 31.2739 54.6571 31.2739 54.6571C31.2739 54.6571 27.8973 54.8729 25.651 55.1726C21.9742 55.6647 18.5614 57.798 16.4943 61.3487C14.4225 64.9072 15.0481 67.2842 15.8875 74.7397C16.6531 81.5368 17.5412 95.642 17.9107 101.824C18.3445 102.158 18.7857 102.486 19.2342 102.807C19.5097 103.004 19.7879 103.199 20.0691 103.391C20.0896 103.405 20.1097 103.419 20.1303 103.433C20.4065 103.621 20.6854 103.807 20.967 103.99C20.9807 103.999 20.9939 104.008 21.0074 104.017C25.6546 107.03 31.0012 109.266 36.7671 109.629C46.037 110.214 52.2934 107.072 59.0701 104.664C59.056 104.243 59.0481 104.018 59.0481 104.018L58.997 104.017H59.1094C59.4065 99.587 60.433 77.1508 60.7443 73.555C61.4021 65.9335 64.1892 59.9079 58.4626 56.5575Z" fill="#367CFF"/>
<path d="M96.6109 65.1988C96.6703 65.0373 96.7623 64.8894 96.8814 64.7641C97.0006 64.6389 97.1443 64.539 97.3038 64.4704C97.4633 64.4018 97.6353 64.3661 97.8093 64.3654C97.9833 64.3646 98.1556 64.3989 98.3157 64.4661C98.6211 64.6068 98.8609 64.8567 98.9868 65.1654C99.1128 65.4741 99.1153 65.8185 98.994 66.1289L98.4048 67.7346L102.11 64.003C102.571 63.5253 103.445 63.2301 103.954 63.7755C104.394 64.1898 105.412 64.3174 105.577 65.0937C105.583 65.0977 105.573 72.2026 105.146 72.6455C103.333 74.5254 98.952 74.889 96.508 73.9342L92.6612 72.4319L96.6109 65.1988Z" fill="#E98862"/>
<g opacity="0.1">
<path d="M96.6109 65.1988C96.6703 65.0373 96.7623 64.8894 96.8814 64.7641C97.0006 64.6389 97.1443 64.539 97.3038 64.4704C97.4633 64.4018 97.6353 64.3661 97.8093 64.3654C97.9833 64.3646 98.1556 64.3989 98.3157 64.4661C98.6211 64.6068 98.8609 64.8567 98.9868 65.1654C99.1128 65.4741 99.1153 65.8185 98.994 66.1289L98.4048 67.7346L102.11 64.003C102.571 63.5253 103.445 63.2301 103.954 63.7755C104.394 64.1898 105.412 64.3174 105.577 65.0937C105.583 65.0977 105.573 72.2026 105.146 72.6455C103.333 74.5254 98.952 74.889 96.508 73.9342L92.6612 72.4319L96.6109 65.1988Z" fill="#0C0C0C"/>
</g>
<path d="M111.386 58.9129C111.386 58.7006 111.342 58.4905 111.255 58.2962C111.169 58.1018 111.042 57.9272 110.884 57.7836C110.726 57.64 110.539 57.5305 110.335 57.4619C110.132 57.3933 109.916 57.3672 109.702 57.3853L102.218 58.0164C101.55 58.0728 100.927 58.3747 100.474 58.8625C100.02 59.3503 99.7687 59.9884 99.7687 60.6507V73.2504C99.7687 73.657 99.9322 74.047 100.223 74.3345C100.514 74.622 100.909 74.7836 101.321 74.7836C101.525 74.7836 101.727 74.7439 101.915 74.6669C102.103 74.5898 102.274 74.4769 102.418 74.3345C102.563 74.1922 102.677 74.0232 102.755 73.8371C102.833 73.6511 102.873 73.4518 102.873 73.2504V63.4236C102.873 63.2058 102.92 62.9905 103.011 62.7921C103.102 62.5937 103.234 62.4167 103.4 62.2728C103.565 62.1289 103.76 62.0215 103.971 61.9578C104.182 61.894 104.404 61.8753 104.622 61.903L109.637 62.5371C109.856 62.5647 110.078 62.546 110.289 62.4822C110.5 62.4185 110.694 62.311 110.86 62.1671C111.025 62.0232 111.158 61.8462 111.249 61.6477C111.339 61.4492 111.386 61.2339 111.386 61.0162V58.9129Z" fill="#F2F2F2"/>
<path d="M101.321 74.9387C100.868 74.9382 100.433 74.7602 100.113 74.4437C99.7922 74.1272 99.612 73.698 99.6115 73.2504V60.6507C99.6076 59.9483 99.8728 59.2705 100.354 58.7532C100.835 58.2359 101.496 57.9174 102.205 57.8616L109.689 57.2307C109.925 57.2107 110.163 57.2394 110.387 57.3149C110.611 57.3904 110.817 57.511 110.991 57.6692C111.166 57.8273 111.305 58.0196 111.4 58.2337C111.495 58.4477 111.544 58.679 111.544 58.9129V61.0161C111.544 61.256 111.493 61.4931 111.393 61.7116C111.293 61.9302 111.147 62.1252 110.964 62.2836C110.782 62.4421 110.568 62.5603 110.336 62.6305C110.103 62.7007 109.859 62.7213 109.618 62.6908L104.603 62.0565C104.407 62.0318 104.207 62.0486 104.018 62.1059C103.828 62.1632 103.654 62.2597 103.505 62.389C103.356 62.5182 103.237 62.6773 103.155 62.8555C103.074 63.0338 103.031 63.2271 103.031 63.4228V73.2504C103.031 73.6982 102.85 74.1274 102.53 74.444C102.209 74.7605 101.774 74.9384 101.321 74.9387ZM109.838 57.5343C109.797 57.5343 109.757 57.5362 109.715 57.5396L102.231 58.1706C101.601 58.2203 101.013 58.5036 100.586 58.9634C100.158 59.4233 99.9224 60.0259 99.9259 60.6502V73.2504C99.9298 73.6133 100.078 73.96 100.34 74.2153C100.601 74.4705 100.953 74.6137 101.321 74.6137C101.688 74.6137 102.041 74.4705 102.302 74.2153C102.563 73.96 102.712 73.6133 102.716 73.2504V63.4236C102.716 63.1838 102.768 62.9467 102.868 62.7281C102.968 62.5096 103.114 62.3146 103.296 62.1562C103.478 61.9977 103.693 61.8795 103.925 61.8093C104.157 61.739 104.402 61.7185 104.642 61.749L109.657 62.3832C109.853 62.4079 110.053 62.3911 110.242 62.3338C110.432 62.2764 110.607 62.1799 110.755 62.0507C110.904 61.9214 111.023 61.7624 111.105 61.5842C111.186 61.4059 111.229 61.2126 111.229 61.0169V58.9129C111.229 58.5481 111.083 58.1983 110.822 57.94C110.561 57.6817 110.207 57.536 109.838 57.5348L109.838 57.5343Z" fill="#0C0C0C"/>
<path d="M100.24 69.6416C100.302 69.4244 100.435 69.2332 100.617 69.0971C100.799 68.961 101.022 68.8875 101.25 68.8877C101.247 68.8697 101.227 68.8279 101.259 68.8247L100.472 68.4471C100.238 68.3408 100.05 68.1544 99.9441 67.9222C99.8381 67.6901 99.8207 67.4279 99.8952 67.184C99.9768 66.9457 100.145 66.7457 100.367 66.6229C100.59 66.5001 100.85 66.4633 101.099 66.5194C101.095 66.5099 101.1 66.4994 101.1 66.4891L100.777 66.3339C100.556 66.2328 100.378 66.0596 100.272 65.8437C100.166 65.6277 100.139 65.3823 100.195 65.1488C100.233 65.0031 100.304 64.8676 100.402 64.7522C100.499 64.6367 100.622 64.544 100.76 64.4809C100.898 64.4179 101.049 64.3859 101.202 64.3873C101.354 64.3887 101.504 64.4236 101.641 64.4892L102.388 64.8473C102.389 64.8429 102.386 64.8387 102.388 64.8347C102.389 64.8307 102.397 64.8282 102.4 64.8235C102.218 64.6797 102.091 64.4791 102.039 64.2546C101.988 64.0301 102.015 63.795 102.117 63.5878C102.344 63.036 103.086 63.0152 103.569 63.2463L105.032 64.0921C105.257 64.2227 105.447 64.4063 105.583 64.6268C105.72 64.8472 105.799 65.0976 105.814 65.3556C105.944 67.5879 106.144 73.4262 104.604 72.6875L100.812 70.8688C100.592 70.756 100.416 70.5742 100.313 70.352C100.209 70.1298 100.184 69.8798 100.24 69.6416Z" fill="#E98862"/>
<path d="M93.7795 66.5826L74.5566 81.7559L61.4147 59.5723L48.4498 67.0645L65.9772 96.6496L66.1092 96.8752C66.6633 97.7967 67.4175 98.5852 68.3175 99.1839C69.2175 99.7826 70.2408 100.177 71.3136 100.337C72.3864 100.498 73.482 100.422 74.5213 100.114C75.5606 99.8055 76.5177 99.2734 77.3236 98.5557L101.923 76.9025L93.7795 66.5826Z" fill="#367CFF"/>
<path d="M76.1628 72.0071C76.1629 71.7948 76.1182 71.5848 76.0318 71.3904C75.9453 71.196 75.8189 71.0215 75.6605 70.8779C75.5022 70.7343 75.3154 70.6248 75.1119 70.5562C74.9085 70.4877 74.6928 70.4616 74.4786 70.4797L66.9944 71.1107C66.3263 71.167 65.7039 71.4689 65.2504 71.9567C64.7969 72.4445 64.5453 73.0827 64.5453 73.7449V86.3445C64.5453 86.7511 64.7088 87.1411 64.9999 87.4286C65.291 87.7161 65.6857 87.8776 66.0974 87.8777C66.3013 87.8777 66.5031 87.838 66.6914 87.761C66.8798 87.6839 67.0509 87.571 67.195 87.4286C67.3391 87.2862 67.4535 87.1172 67.5315 86.9312C67.6095 86.7452 67.6496 86.5458 67.6496 86.3445V76.5178C67.6496 76.3 67.6966 76.0848 67.7874 75.8864C67.8783 75.6879 68.0108 75.5109 68.1764 75.367C68.3419 75.2232 68.5365 75.1158 68.7473 75.052C68.9582 74.9882 69.1803 74.9696 69.399 74.9972L74.4136 75.6313C74.6323 75.6589 74.8544 75.6403 75.0652 75.5765C75.276 75.5127 75.4707 75.4053 75.6362 75.2615C75.8017 75.1176 75.9342 74.9406 76.0251 74.7421C76.1159 74.5437 76.1628 74.3285 76.1628 74.1107V72.0071Z" fill="#F2F2F2"/>
<path d="M66.0974 88.0329C65.6441 88.0326 65.2095 87.8546 64.889 87.5381C64.5684 87.2216 64.3881 86.7924 64.3876 86.3447V73.7449C64.3837 73.0425 64.6489 72.3647 65.13 71.8474C65.6111 71.3301 66.2724 71.0116 66.9813 70.9559L74.4656 70.3249C74.7015 70.305 74.939 70.3337 75.163 70.4092C75.3871 70.4848 75.5928 70.6054 75.7672 70.7635C75.9416 70.9217 76.0808 71.1139 76.1761 71.328C76.2713 71.542 76.3205 71.7733 76.3205 72.0071V74.1107C76.3205 74.3505 76.2688 74.5876 76.1688 74.8061C76.0688 75.0246 75.9228 75.2196 75.7405 75.378C75.5582 75.5365 75.3439 75.6547 75.1117 75.725C74.8796 75.7952 74.6349 75.8158 74.3941 75.7853L69.3795 75.1511C69.183 75.1263 68.9834 75.1431 68.794 75.2004C68.6046 75.2577 68.4297 75.3541 68.281 75.4834C68.1322 75.6127 68.0131 75.7717 67.9315 75.95C67.8499 76.1283 67.8076 76.3217 67.8076 76.5173V86.3442C67.8071 86.792 67.6268 87.2214 67.3062 87.538C66.9856 87.8546 66.5508 88.0326 66.0974 88.0329ZM74.6146 70.6286C74.5741 70.6286 74.5332 70.6305 74.492 70.6339L67.0077 71.2648C66.3774 71.3144 65.7894 71.5977 65.3618 72.0577C64.9341 72.5177 64.6984 73.1204 64.702 73.7449V86.3447C64.7059 86.7076 64.8546 87.0543 65.1158 87.3095C65.377 87.5648 65.7296 87.708 66.097 87.708C66.4645 87.708 66.8171 87.5648 67.0783 87.3095C67.3395 87.0543 67.4882 86.7076 67.4921 86.3447V76.5178C67.4921 76.278 67.5438 76.0409 67.6438 75.8224C67.7438 75.6038 67.8898 75.4089 68.0721 75.2504C68.2544 75.092 68.4688 74.9737 68.701 74.9035C68.9331 74.8333 69.1778 74.8127 69.4187 74.8432L74.4332 75.4773C74.6297 75.5021 74.8293 75.4853 75.0187 75.428C75.2082 75.3707 75.3831 75.2742 75.5318 75.145C75.6805 75.0157 75.7996 74.8566 75.8813 74.6784C75.9629 74.5001 76.0051 74.3067 76.0052 74.111V72.0071C76.0052 71.6424 75.8588 71.2925 75.598 71.0342C75.3373 70.7758 74.9835 70.6302 74.6142 70.6291L74.6146 70.6286Z" fill="#0C0C0C"/>
<path d="M62.6009 75.857C62.6568 75.705 62.7434 75.5659 62.8555 75.448C62.9676 75.3301 63.1028 75.2361 63.253 75.1715C63.4031 75.107 63.5649 75.0734 63.7287 75.0726C63.8924 75.0719 64.0546 75.1042 64.2053 75.1674C64.4926 75.2998 64.7184 75.535 64.8369 75.8256C64.9554 76.1161 64.9578 76.4402 64.8436 76.7324L64.519 77.6161L67.134 76.144C67.7375 75.7286 68.6196 75.5593 69.1932 75.8774C69.7947 76.2109 70.2417 76.9856 70.3972 77.7163C70.4026 77.7201 70.8319 81.0212 70.0842 82.6823C69.0793 84.9144 64.486 86.8795 62.1859 85.9812L58.5657 84.5675L62.6009 75.857Z" fill="#E98862"/>
<path d="M60.3645 81.1426H60.3599C60.3419 81.1421 60.3242 81.138 60.3078 81.1307C60.2915 81.1234 60.2767 81.1129 60.2644 81.0999C60.2521 81.0869 60.2426 81.0717 60.2363 81.055C60.23 81.0384 60.2272 81.0206 60.2279 81.0029L60.5009 72.7469C60.5029 72.7114 60.5188 72.678 60.5451 72.6537C60.5715 72.6294 60.6063 72.6161 60.6424 72.6165C60.6604 72.6171 60.6781 72.6211 60.6944 72.6285C60.7108 72.6358 60.7256 72.6463 60.7378 72.6593C60.7501 72.6722 60.7597 72.6875 60.7659 72.7041C60.7722 72.7208 60.7751 72.7385 60.7744 72.7562L60.5014 81.0122C60.5002 81.0473 60.4852 81.0805 60.4597 81.1048C60.4341 81.1292 60.4 81.1427 60.3645 81.1426Z" fill="#0C0C0C"/>
<path d="M61.1534 76.5906L38.5386 83.2046L30.8202 63.0817L15.7618 69.0802L27.0199 95.0441L27.1745 95.4012C27.9089 97.0804 29.2634 98.4202 30.9625 99.1481C32.6615 99.876 34.5775 99.9373 36.3207 99.3195L65.2836 89.0567L61.1534 76.5906Z" fill="#367CFF"/>
<path d="M33.8698 99.8771C32.4201 99.8775 31.002 99.4591 29.7901 98.6733C28.5782 97.8875 27.6256 96.7687 27.0496 95.4547L26.8949 95.0976L16.8703 74.5023C16.8555 74.4701 16.854 74.4336 16.8662 74.4004C16.8784 74.3672 16.9032 74.34 16.9354 74.3247C16.9676 74.3094 17.0046 74.3072 17.0385 74.3185C17.0723 74.3299 17.1004 74.3539 17.1165 74.3854L27.1434 94.9865L27.3006 95.3491C28.0229 96.9955 29.3521 98.3088 31.0187 99.0228C32.6853 99.7368 34.5645 99.798 36.2751 99.1939L65.1119 88.9746L61.0649 76.7577L38.5774 83.3345C38.5454 83.3438 38.5112 83.3412 38.481 83.3273C38.4509 83.3134 38.4268 83.2892 38.4134 83.2591L32.1309 69.0166C32.1174 68.9839 32.1173 68.9473 32.1307 68.9146C32.1441 68.8819 32.17 68.8557 32.2027 68.8416C32.2355 68.8275 32.2725 68.8267 32.3059 68.8392C32.3393 68.8518 32.3664 68.8768 32.3813 68.9088L38.615 83.042L61.114 76.4613C61.1481 76.4513 61.1848 76.4548 61.2163 76.4711C61.2478 76.4875 61.2716 76.5153 61.2826 76.5487L65.4122 89.0148C65.4233 89.0482 65.4208 89.0845 65.4051 89.116C65.3895 89.1476 65.362 89.1719 65.3286 89.1837L36.3674 99.4472C35.5662 99.7316 34.7212 99.877 33.8698 99.8771Z" fill="#0C0C0C"/>
<path d="M34.6659 84.5355C34.6329 84.5359 34.6009 84.5246 34.5758 84.5035C34.5507 84.4825 34.5341 84.4532 34.5291 84.421C34.5242 84.3889 34.5311 84.356 34.5488 84.3285C34.5665 84.301 34.5936 84.2808 34.6252 84.2715L38.4979 83.0761C38.532 83.0667 38.5685 83.0709 38.5996 83.0877C38.6307 83.1044 38.654 83.1325 38.6646 83.1659C38.6752 83.1993 38.6722 83.2354 38.6563 83.2667C38.6403 83.298 38.6127 83.3219 38.5793 83.3335L34.7064 84.5289C34.6933 84.5332 34.6797 84.5354 34.6659 84.5355Z" fill="#0C0C0C"/>
<path d="M38.5073 38.4686L31.1221 39.381C31.0281 39.3926 30.9328 39.3859 30.8415 39.3611C30.7502 39.3363 30.6648 39.294 30.5901 39.2366C30.5154 39.1792 30.4528 39.1078 30.406 39.0266C30.3592 38.9453 30.3291 38.8557 30.3174 38.763C30.2937 38.5756 30.3463 38.3866 30.4636 38.2376C30.581 38.0885 30.7535 37.9916 30.9432 37.9682L38.3284 37.0557L38.5073 38.4686Z" fill="#F2F2F2"/>
<path d="M31.032 39.5417C30.8086 39.5416 30.5937 39.4574 30.4309 39.3063C30.2682 39.1551 30.1699 38.9484 30.1561 38.7282C30.1423 38.508 30.214 38.2909 30.3566 38.1211C30.4992 37.9512 30.702 37.8415 30.9237 37.8142L38.3089 36.9017C38.3294 36.899 38.3502 36.9003 38.3701 36.9056C38.39 36.911 38.4087 36.9202 38.4249 36.9328C38.4412 36.9453 38.4549 36.9608 38.4651 36.9785C38.4753 36.9963 38.4819 37.0158 38.4845 37.036L38.6634 38.4489C38.6685 38.4897 38.6571 38.5309 38.6315 38.5634C38.6059 38.5959 38.5683 38.617 38.5269 38.6221L31.1415 39.5346C31.1052 39.5392 31.0686 39.5416 31.032 39.5417ZM38.1919 37.2284L30.9627 38.1217C30.8143 38.1401 30.6795 38.2158 30.5877 38.3324C30.496 38.4489 30.4548 38.5967 30.4734 38.7432C30.4919 38.8896 30.5686 39.0228 30.6866 39.1135C30.8046 39.2041 30.9542 39.2447 31.1026 39.2264L38.3319 38.3332L38.1919 37.2284Z" fill="#0C0C0C"/>
<path d="M51.0358 37.6428L50.6383 34.5033C50.5704 33.9679 50.29 33.481 49.8587 33.1498C49.4274 32.8185 48.8806 32.67 48.3385 32.7369L38.1591 33.9945C38.0797 34.0047 38.001 34.0194 37.9233 34.0386L36.4214 34.2242C36.153 34.2572 35.8938 34.3422 35.6586 34.4743C35.4234 34.6064 35.2169 34.783 35.0508 34.9939C34.8847 35.2048 34.7624 35.446 34.6907 35.7037C34.6191 35.9614 34.5995 36.2304 34.6332 36.4956L35.0307 39.635C35.0642 39.9002 35.1503 40.1562 35.284 40.3885C35.4178 40.6208 35.5965 40.8248 35.8101 40.9888C36.0237 41.1528 36.2679 41.2737 36.5287 41.3444C36.7896 41.4152 37.0621 41.4345 37.3305 41.4012L47.5098 40.1437C47.5891 40.1334 47.6679 40.1187 47.7455 40.0996L49.2472 39.9132C49.5156 39.8802 49.7748 39.7952 50.01 39.6632C50.2451 39.5312 50.4516 39.3548 50.6177 39.1439C50.7838 38.9331 50.9062 38.692 50.978 38.4344C51.0497 38.1769 51.0694 37.9078 51.0358 37.6428Z" fill="#F2F2F2"/>
<path d="M37.0735 41.5725C36.5336 41.5715 36.0125 41.3761 35.6079 41.0231C35.2032 40.6701 34.9426 40.1835 34.875 39.6544L34.4772 36.515C34.4043 35.9387 34.5661 35.3574 34.9271 34.899C35.2881 34.4405 35.8187 34.1424 36.4021 34.0703L37.8955 33.8858C37.9761 33.8662 38.0577 33.8511 38.1401 33.8407L48.3195 32.5831C48.6084 32.5473 48.9016 32.5681 49.1824 32.6443C49.4632 32.7205 49.726 32.8506 49.9559 33.0271C50.1858 33.2037 50.3782 33.4232 50.5221 33.6732C50.666 33.9232 50.7586 34.1988 50.7947 34.4842L51.1922 37.6235C51.2285 37.9089 51.2074 38.1985 51.1303 38.4759C51.0532 38.7532 50.9215 39.0128 50.7427 39.2399C50.564 39.4669 50.3417 39.657 50.0885 39.7991C49.8354 39.9413 49.5563 40.0328 49.2674 40.0684L47.774 40.2528C47.6934 40.2723 47.6117 40.2874 47.5294 40.298L37.35 41.5556C37.2583 41.5669 37.1659 41.5725 37.0735 41.5725ZM48.598 32.8762C48.5178 32.8765 48.4376 32.8817 48.358 32.8917L38.1786 34.1493C38.1053 34.1588 38.0326 34.1724 37.9609 34.1902C37.955 34.1916 37.949 34.1927 37.9429 34.1934L36.4411 34.3789C35.9406 34.4414 35.4856 34.6973 35.1759 35.0907C34.8662 35.484 34.7272 35.9826 34.7893 36.4771L35.1868 39.6166C35.2501 40.1109 35.5092 40.5602 35.9075 40.8661C36.3057 41.1719 36.8105 41.3093 37.3112 41.248L47.4906 39.9904C47.5639 39.981 47.6367 39.9673 47.7084 39.9496C47.7144 39.9482 47.7203 39.9471 47.7264 39.9463L49.2279 39.7608C49.7284 39.6984 50.1835 39.4425 50.4932 39.0491C50.8029 38.6558 50.942 38.1571 50.8799 37.6626L50.4823 34.5233C50.4246 34.0696 50.2014 33.6522 49.8546 33.3493C49.5077 33.0464 49.061 32.8787 48.598 32.8776V32.8762Z" fill="#0C0C0C"/>
<path d="M50.169 32.5262L39.9899 33.7838C38.861 33.9233 38.0602 34.9402 38.2015 36.0552L38.5991 39.1946C38.7403 40.3096 39.7699 41.1005 40.8989 40.961L51.078 39.7034C52.207 39.5639 53.0077 38.547 52.8665 37.4319L52.4689 34.2926C52.3276 33.1776 51.298 32.3867 50.169 32.5262Z" fill="#F2F2F2"/>
<path d="M40.6389 41.1319C40.0992 41.1307 39.5786 40.9352 39.1744 40.5821C38.7703 40.2289 38.5103 39.7424 38.4433 39.2135L38.0458 36.0741C38.0094 35.7887 38.0304 35.499 38.1075 35.2216C38.1846 34.9442 38.3163 34.6845 38.495 34.4574C38.6738 34.2303 38.8961 34.0403 39.1492 33.8981C39.4024 33.7559 39.6815 33.6644 39.9705 33.6287L50.1499 32.3712C50.7332 32.2999 51.3214 32.46 51.7854 32.8163C52.2494 33.1727 52.5514 33.6963 52.6251 34.2723L53.0226 37.4117C53.095 37.9879 52.933 38.5689 52.5721 39.0272C52.2113 39.4855 51.6811 39.7837 51.0979 39.8564L40.9185 41.114C40.8258 41.1257 40.7324 41.1316 40.6389 41.1319ZM50.4264 32.6651C50.347 32.6651 50.2676 32.67 50.1888 32.6798L40.0095 33.9374C39.7615 33.968 39.5221 34.0465 39.3048 34.1684C39.0876 34.2904 38.8969 34.4535 38.7435 34.6483C38.5901 34.8431 38.477 35.0659 38.4108 35.3039C38.3446 35.5418 38.3266 35.7904 38.3576 36.0352L38.7552 39.1747C38.7861 39.4196 38.8656 39.6561 38.9891 39.8707C39.1127 40.0853 39.2778 40.2737 39.4751 40.4252C39.6724 40.5767 39.8979 40.6883 40.1389 40.7537C40.3799 40.8191 40.6316 40.8369 40.8795 40.8061L51.0589 39.5486C51.5594 39.4861 52.0144 39.2301 52.3241 38.8368C52.6337 38.4435 52.7728 37.9449 52.7107 37.4504L52.313 34.3119C52.2551 33.8577 52.0316 33.44 51.6843 33.1369C51.337 32.8338 50.8898 32.666 50.4264 32.6651Z" fill="#0C0C0C"/>
</svg>
