<svg width="143" height="100" viewBox="0 0 143 100" fill="none" xmlns="http://www.w3.org/2000/svg">
<path opacity="0.2" d="M42.7654 12.9643L42.6637 12.9384L10.3938 80.9954L124.152 89.8417L124.28 89.8516L128.448 34.6047L128.457 34.496L42.7654 12.9643ZM75.4446 56.7311L10.8415 80.6505L42.7592 13.3365L75.4446 56.7311ZM75.6341 56.9361L123.688 89.5458L11.1866 80.798L75.6341 56.9361ZM75.6934 56.6343L43.0565 13.3032L127.914 34.6253L75.6934 56.6343ZM124.051 89.4812L75.9202 56.8188L128.177 34.7949L124.051 89.4812Z" fill="#367CFF"/>
<path d="M142.988 35.7552C142.885 38.3752 142.154 40.9312 140.857 43.2047C139.56 45.4782 137.737 47.4017 135.541 48.8107C133.346 50.2198 130.845 51.0725 128.252 51.296C125.658 51.5196 123.05 51.1073 120.649 50.0943C119.523 49.619 118.455 49.0146 117.466 48.2931C115.576 46.9187 114.003 45.1493 112.855 43.1059V43.1041C111.63 40.9186 110.925 38.4768 110.796 35.9706C110.666 33.4644 111.115 30.9621 112.107 28.6602C113.1 26.3583 114.609 24.3196 116.515 22.7041C118.422 21.0887 120.674 19.9407 123.095 19.3501C125.517 18.7596 128.041 18.7427 130.47 19.3008C132.899 19.8588 135.166 20.9766 137.094 22.5663C139.021 24.1561 140.557 26.1744 141.58 28.4628C142.602 30.7512 143.084 33.2474 142.988 35.7551L142.988 35.7552Z" fill="white"/>
<path opacity="0.09" d="M142.988 35.7552C142.885 38.3752 142.154 40.9312 140.857 43.2047C139.56 45.4782 137.737 47.4017 135.541 48.8107C133.346 50.2198 130.845 51.0725 128.252 51.296C125.658 51.5196 123.05 51.1073 120.649 50.0943C119.523 49.619 118.455 49.0146 117.466 48.2931C115.576 46.9187 114.003 45.1493 112.855 43.1059V43.1041C111.63 40.9186 110.925 38.4768 110.796 35.9706C110.666 33.4644 111.115 30.9621 112.107 28.6602C113.1 26.3583 114.609 24.3196 116.515 22.7041C118.422 21.0887 120.674 19.9407 123.095 19.3501C125.517 18.7596 128.041 18.7427 130.47 19.3008C132.899 19.8588 135.166 20.9766 137.094 22.5663C139.021 24.1561 140.557 26.1744 141.58 28.4628C142.602 30.7512 143.084 33.2474 142.988 35.7551L142.988 35.7552Z" fill="#367CFF"/>
<path d="M130.697 22.7647C130.697 22.7647 134.549 22.8122 133.221 28.16L132.859 28.1778L132.125 28.2138" fill="#0C0C0C"/>
<path d="M126.395 33.7707C126.413 33.769 126.484 37.1046 130.333 36.9645C132.998 36.8679 134.054 34.0653 134.115 34.0676C133.831 33.9952 133.352 33.8868 133.228 33.8137C132.818 33.571 132.31 33.3152 132.206 32.4914C132.147 32.0166 132.371 29.6086 132.349 29.1298L128.236 29.8873C128.254 30.8976 128.563 33.2498 127.149 33.6087C126.914 33.6682 126.661 33.7212 126.395 33.7707Z" fill="#E98862"/>
<path opacity="0.52" d="M128.07 32.6884C128.142 32.4835 128.192 32.2712 128.218 32.0555C128.282 31.5634 128.292 31.0657 128.248 30.5714C129.081 30.4911 129.876 30.1769 130.54 29.6647C130.605 29.9488 130.974 31.1967 130.848 31.46C130.611 31.9577 129.555 32.7465 128.07 32.6884Z" fill="#0C0C0C"/>
<path d="M129.004 32.099C130.617 31.9828 132.562 30.9938 132.63 28.7926L132.691 26.8068C132.758 24.606 131.665 22.786 129.608 22.722C127.551 22.6574 125.959 24.394 125.891 26.5949L125.865 27.474C125.86 27.7762 125.877 28.0782 125.913 28.3781C126.005 29.1712 126.147 30.377 126.665 31.2003C127.154 31.9776 127.974 32.173 129.004 32.099Z" fill="#E98862"/>
<path d="M132.481 29.4596C133.106 29.4789 133.634 28.821 133.653 28.1914C133.673 27.5617 133.176 27.1985 132.551 27.179L132.216 27.5909L131.944 29.4428L132.481 29.4596Z" fill="#E98862"/>
<path d="M125.997 29.0428C126.11 29.1777 126.255 29.282 126.418 29.3462C126.581 29.4104 126.758 29.4324 126.931 29.4104C127.303 29.3632 127.55 29.5169 127.86 29.486C128.121 29.4602 128.166 29.3389 128.61 29.3125C130.327 29.21 131.615 29.101 131.698 26.9313L132.791 25.954C132.791 25.954 133.279 31.9665 130.051 32.7657C128.067 33.2565 126.206 33.0771 125.967 31.2003C125.773 29.6754 125.997 29.0428 125.997 29.0428Z" fill="#0C0C0C"/>
<path d="M126.81 27.7871C126.95 27.7871 127.064 27.6728 127.064 27.5318C127.064 27.3907 126.95 27.2764 126.81 27.2764C126.67 27.2764 126.557 27.3907 126.557 27.5318C126.557 27.6728 126.67 27.7871 126.81 27.7871Z" fill="#0C0C0C"/>
<path d="M129.075 27.7396C129.215 27.7396 129.328 27.6253 129.328 27.4842C129.328 27.3432 129.215 27.2289 129.075 27.2289C128.935 27.2289 128.822 27.3432 128.822 27.4842C128.822 27.6253 128.935 27.7396 129.075 27.7396Z" fill="#0C0C0C"/>
<path d="M131.877 28.4359C131.877 28.4359 131.723 25.3172 130.789 25.1076C130.166 24.968 128.636 25.8326 127.238 25.5373C126.627 25.4082 126.041 25.5502 125.977 25.8414C125.951 25.9566 125.467 24.9348 126.451 23.6915C127.234 22.7017 129.781 22.4232 130.914 22.7732C134.052 23.7427 132.678 27.3187 132.678 27.3187L132.518 28.3899L131.877 28.4359Z" fill="#0C0C0C"/>
<path d="M133.303 25.9212C134.227 25.9212 134.975 25.167 134.975 24.2367C134.975 23.3064 134.227 22.5522 133.303 22.5522C132.38 22.5522 131.631 23.3064 131.631 24.2367C131.631 25.167 132.38 25.9212 133.303 25.9212Z" fill="#0C0C0C"/>
<g opacity="0.52">
<path d="M127.891 29.3858H127.887C127.685 29.38 127.348 29.3477 127.352 29.196C127.356 29.0702 127.736 27.722 127.779 27.5686C127.783 27.5554 127.792 27.5442 127.804 27.5376C127.815 27.5309 127.829 27.5292 127.843 27.533C127.856 27.5367 127.867 27.5456 127.873 27.5576C127.88 27.5695 127.882 27.5837 127.878 27.5969C127.709 28.194 127.457 29.1133 127.455 29.1984C127.474 29.2348 127.681 29.2759 127.89 29.282C127.903 29.2818 127.916 29.2871 127.926 29.2967C127.936 29.3063 127.941 29.3194 127.942 29.3331C127.942 29.3468 127.936 29.36 127.927 29.3698C127.917 29.3796 127.904 29.3851 127.891 29.3853V29.3858Z" fill="#0C0C0C"/>
</g>
<path d="M127.278 26.6642C127.069 26.6021 126.849 26.5977 126.638 26.6513C126.535 26.6769 126.435 26.7181 126.344 26.7735C126.253 26.8278 126.17 26.8933 126.096 26.9686C126.083 26.9803 126.075 26.9965 126.074 27.0139C126.073 27.0313 126.079 27.0484 126.091 27.0613C126.102 27.0743 126.119 27.0821 126.136 27.0831C126.153 27.084 126.17 27.078 126.183 27.0664L126.187 27.0631C126.256 27.0002 126.333 26.9463 126.415 26.9028C126.497 26.8594 126.584 26.8287 126.674 26.8116C126.853 26.7765 127.037 26.7894 127.209 26.8492L127.215 26.8516C127.227 26.8564 127.24 26.8586 127.253 26.8583C127.266 26.8579 127.279 26.8549 127.291 26.8495C127.303 26.8441 127.313 26.8364 127.322 26.8268C127.331 26.8172 127.338 26.8059 127.343 26.7937C127.347 26.7814 127.349 26.7683 127.348 26.7552C127.348 26.7421 127.345 26.7293 127.339 26.7174C127.334 26.7056 127.326 26.695 127.316 26.6862C127.306 26.6775 127.295 26.6707 127.283 26.6664L127.278 26.6642Z" fill="#0C0C0C"/>
<path d="M128.771 26.8494C128.936 26.773 129.118 26.7421 129.299 26.7597C129.391 26.7678 129.481 26.7898 129.566 26.8252C129.652 26.8604 129.734 26.9064 129.809 26.9622L129.813 26.965C129.827 26.9742 129.844 26.9776 129.86 26.9746C129.876 26.9716 129.891 26.9624 129.901 26.9489C129.911 26.9353 129.915 26.9185 129.913 26.9019C129.911 26.8852 129.903 26.87 129.89 26.8594C129.808 26.7917 129.719 26.7346 129.624 26.6894C129.528 26.6433 129.425 26.612 129.319 26.5965C129.105 26.564 128.885 26.5902 128.684 26.6724C128.661 26.6826 128.642 26.7019 128.632 26.7259C128.623 26.7499 128.623 26.7768 128.633 26.8008C128.642 26.8247 128.661 26.8438 128.685 26.8539C128.709 26.8639 128.735 26.8642 128.759 26.8546L128.764 26.8525L128.771 26.8494Z" fill="#0C0C0C"/>
<path d="M139.04 42.0997C138.897 43.1901 138.757 44.688 138.632 46.2367C138.143 46.7602 137.621 47.2506 137.069 47.7047C136.718 47.9921 136.355 48.2653 135.981 48.5243C133.96 49.9141 131.652 50.8229 129.231 51.1819C126.81 51.5409 124.34 51.3409 122.007 50.5968C121.975 49.1582 121.932 47.2178 121.888 45.44C121.839 43.3894 121.789 41.5533 121.762 40.95C121.652 38.5557 121.022 36.9582 121.498 35.6519C121.641 35.2652 121.87 34.9168 122.167 34.6337C123.277 33.5396 126.033 33.5646 127.139 33.6078C127.158 33.6086 126.817 36.179 130.454 36.148C133.128 36.1259 133.328 33.8497 133.328 33.8497C133.328 33.8497 134.646 33.9878 135.521 34.1409C136.952 34.3934 137.882 34.9221 138.607 35.7118C139.282 36.4481 139.681 37.2298 139.04 42.0997Z" fill="#367CFF"/>
<path d="M117.655 33.8612L117.765 31.1186C117.767 31.0583 117.757 30.9981 117.736 30.9419C117.714 30.8857 117.68 30.8347 117.638 30.7921C117.595 30.7496 117.544 30.7165 117.489 30.6948C117.433 30.6732 117.373 30.6636 117.313 30.6665C117.203 30.6755 117.1 30.7254 117.024 30.8065C116.948 30.8877 116.905 30.9943 116.903 31.1057L116.879 31.6939L116.11 29.8104C116.028 29.5994 115.794 29.3933 115.565 29.5014C115.474 29.5372 115.398 29.6029 115.349 29.6878C115.301 29.7727 115.282 29.8718 115.296 29.969C115.294 29.9692 115.292 29.9697 115.289 29.9704C115.288 29.9712 115.287 29.9722 115.285 29.9732L115.159 29.648C115.136 29.5878 115.099 29.5335 115.053 29.4893C115.006 29.445 114.95 29.4119 114.888 29.3922C114.827 29.3725 114.763 29.3669 114.699 29.3756C114.635 29.3844 114.574 29.4073 114.521 29.4428C114.437 29.5003 114.376 29.585 114.347 29.6826C114.318 29.7803 114.323 29.885 114.362 29.9792L114.416 30.1175C114.412 30.1209 114.41 30.1249 114.408 30.1292C114.35 30.0443 114.264 29.9828 114.165 29.9558C114.067 29.9288 113.962 29.9379 113.869 29.9816C113.769 30.0326 113.692 30.1196 113.653 30.2254C113.614 30.3311 113.616 30.4478 113.659 30.5521L113.792 30.8959C113.787 30.8924 113.781 30.8902 113.774 30.8895C113.768 30.8887 113.762 30.8895 113.756 30.8918C113.749 30.8949 113.743 30.8999 113.739 30.9063C113.667 30.8449 113.576 30.8092 113.482 30.8047C113.387 30.8001 113.294 30.827 113.216 30.8811C113.136 30.9396 113.077 31.0238 113.05 31.1201C113.023 31.2163 113.028 31.319 113.066 31.4115L114.192 34.3123C114.349 34.7181 114.623 35.0673 114.979 35.3151C115.335 35.5629 115.756 35.6981 116.188 35.7033C116.561 35.7077 116.921 35.5655 117.192 35.3069C117.462 35.0483 117.622 34.6936 117.637 34.3182L117.655 33.8612Z" fill="#E98862"/>
<g opacity="0.2">
<path d="M116.047 31.8372C116.038 31.841 116.027 31.8408 116.017 31.8367C116.008 31.8325 116 31.8247 115.996 31.815L115.268 30.0227C115.265 30.0178 115.264 30.0124 115.264 30.007C115.264 30.0015 115.265 29.9961 115.266 29.991C115.268 29.9859 115.271 29.9813 115.275 29.9774C115.279 29.9735 115.284 29.9705 115.289 29.9684C115.294 29.9664 115.299 29.9653 115.304 29.9654C115.31 29.9655 115.315 29.9667 115.32 29.969C115.325 29.9712 115.329 29.9744 115.333 29.9785C115.337 29.9825 115.339 29.9872 115.341 29.9923L116.07 31.7847C116.072 31.7895 116.073 31.7948 116.073 31.8C116.073 31.8053 116.072 31.8105 116.07 31.8154C116.068 31.8202 116.065 31.8246 116.061 31.8283C116.057 31.832 116.053 31.835 116.048 31.837L116.047 31.8372Z" fill="#0C0C0C"/>
</g>
<g opacity="0.2">
<path d="M115.272 32.1828C115.262 32.1867 115.251 32.1865 115.241 32.1823C115.232 32.1781 115.224 32.1703 115.22 32.1605L114.407 30.1602C114.403 30.1505 114.404 30.1396 114.408 30.1299C114.412 30.1203 114.419 30.1126 114.429 30.1086C114.439 30.1051 114.449 30.1054 114.459 30.1094C114.468 30.1135 114.476 30.121 114.48 30.1304L115.293 32.1307C115.297 32.1405 115.297 32.1516 115.293 32.1614C115.289 32.1712 115.281 32.1789 115.272 32.183V32.1828Z" fill="#0C0C0C"/>
</g>
<g opacity="0.2">
<path d="M114.434 32.5619C114.424 32.5657 114.413 32.5655 114.403 32.5614C114.394 32.5572 114.386 32.5494 114.382 32.5396L113.734 30.9441C113.73 30.9343 113.73 30.9232 113.734 30.9134C113.738 30.9036 113.746 30.8959 113.755 30.8919C113.765 30.8878 113.776 30.8879 113.786 30.892C113.795 30.8961 113.803 30.9039 113.807 30.9137L114.456 32.5088C114.46 32.5187 114.46 32.5297 114.456 32.5395C114.452 32.5493 114.444 32.5571 114.434 32.5611L114.434 32.5619Z" fill="#0C0C0C"/>
</g>
<path d="M126.667 38.1611L120.041 48.4234C119.8 48.7965 119.477 49.1088 119.098 49.3366C118.533 49.0229 117.988 48.6744 117.466 48.2931C116.353 47.4842 115.347 46.5353 114.474 45.4695L113.082 34.5991L118.652 33.7001L119.287 38.9325L121.832 34.9915L126.667 38.1611Z" fill="#367CFF"/>
<path d="M127.444 29.9457C128.052 29.9864 128.656 29.8218 129.16 29.478C129.178 29.4662 129.198 29.4596 129.22 29.4591C129.241 29.4586 129.261 29.4641 129.28 29.475C129.298 29.486 129.312 29.5019 129.322 29.5208C129.331 29.5398 129.335 29.5611 129.333 29.5823C129.292 29.9439 129.115 30.6091 128.362 30.6938C127.875 30.7484 127.523 30.3722 127.345 30.122C127.333 30.1047 127.326 30.0842 127.325 30.063C127.324 30.0417 127.329 30.0206 127.339 30.0021C127.349 29.9836 127.365 29.9684 127.383 29.9584C127.402 29.9485 127.423 29.944 127.444 29.9457Z" fill="white"/>
<path d="M140.837 43.253C139.858 44.9537 138.581 46.4618 137.069 47.7047C136.718 47.9921 136.355 48.2653 135.981 48.5243L133.393 38.6062L139.222 37.0619L140.837 43.253Z" fill="#367CFF"/>
<path d="M136.038 48.4856C136.02 48.4977 136 48.5114 135.981 48.5243C135.963 48.5372 135.944 48.5501 135.926 48.5622L133.954 41.0065L134.078 40.9738L136.038 48.4856Z" fill="#0C0C0C"/>
<path d="M121.904 45.9072C121.888 45.9065 121.873 45.8998 121.862 45.8884C121.85 45.877 121.843 45.8617 121.843 45.8456L121.716 43.03C121.715 43.0128 121.721 42.9961 121.732 42.9835C121.744 42.9708 121.76 42.9633 121.777 42.9625C121.794 42.9617 121.81 42.9678 121.823 42.9793C121.835 42.9909 121.843 43.007 121.844 43.0242L121.971 45.8398C121.972 45.8569 121.966 45.8736 121.954 45.8862C121.943 45.8988 121.927 45.9064 121.91 45.9072H121.904Z" fill="#0C0C0C"/>
<path d="M73.9689 71.9619C83.0408 71.9619 90.395 64.5536 90.395 55.4149C90.395 46.2763 83.0408 38.868 73.9689 38.868C64.8971 38.868 57.5429 46.2763 57.5429 55.4149C57.5429 64.5536 64.8971 71.9619 73.9689 71.9619Z" fill="white"/>
<path opacity="0.09" d="M90.3951 55.4145C90.3951 58.6871 89.4317 61.8862 87.6268 64.6073C85.8219 67.3284 83.2566 69.4492 80.2552 70.7016C77.2537 71.954 73.951 72.2817 70.7647 71.6432C67.5785 71.0048 64.6517 69.4288 62.3545 67.1147C60.0573 64.8007 58.4929 61.8523 57.8591 58.6426C57.2253 55.4328 57.5506 52.1058 58.7938 49.0823C60.037 46.0588 62.1424 43.4746 64.8436 41.6564C67.5448 39.8382 70.7205 38.8678 73.9693 38.8678C76.1286 38.8597 78.2681 39.2822 80.2646 40.1109C82.2611 40.9396 84.075 42.1581 85.6019 43.6962C87.1287 45.2344 88.3384 47.0616 89.161 49.0728C89.9837 51.084 90.4031 53.2393 90.3951 55.4145Z" fill="#367CFF"/>
<path d="M66.6979 45.6551C66.6979 45.6551 66.5328 48.153 65.9748 49.0593C64.3688 51.6683 63.9035 54.6034 65.5118 56.1371C67.1202 57.6708 77.3786 57.6919 78.1557 54.1649C78.8096 51.1955 77.406 50.8763 77.0644 48.4268C76.9098 47.3185 76.4845 44.9945 76.4845 44.9945" fill="#0A0A0A"/>
<path d="M75.5004 53.6473C75.4828 53.645 75.2863 56.9296 71.4984 56.6438C68.8762 56.4459 67.9412 53.6432 67.8811 53.6432C68.1638 53.5828 68.6399 53.4947 68.7658 53.4273C69.1786 53.2037 69.6896 52.9712 69.8226 52.1633C69.8996 51.6984 69.7692 49.3159 69.8098 48.8449L73.835 49.7499C73.7788 50.7444 73.3851 53.0511 74.7648 53.4593C74.9936 53.5263 75.2409 53.5884 75.5004 53.6473Z" fill="#E98862"/>
<path opacity="0.5" d="M73.8906 52.5163C73.8276 52.3116 73.787 52.1005 73.7696 51.8869C73.7253 51.3995 73.7341 50.9087 73.7959 50.4232C72.9778 50.312 72.207 49.972 71.5712 49.4416C71.4965 49.7197 71.0854 50.9346 71.1994 51.199C71.4149 51.6982 72.4253 52.5163 73.8906 52.5163Z" fill="#0C0C0C"/>
<path d="M73.3702 51.493C71.7832 51.648 69.7298 51.0081 69.3045 48.8792L68.9207 46.9583C68.4954 44.8294 69.2606 42.8785 71.2503 42.4751C73.2402 42.0716 75.0723 43.4955 75.4976 45.6249L75.6676 46.4752C75.8309 47.2922 76.2016 51.217 73.3702 51.493Z" fill="#E98862"/>
<path opacity="0.1" d="M72.3613 48.7037C72.6224 48.6723 72.8156 48.4904 72.7927 48.2974C72.7699 48.1044 72.5396 47.9734 72.2785 48.0048C72.0174 48.0362 71.8242 48.2181 71.8471 48.4111C71.8699 48.6041 72.1002 48.7351 72.3613 48.7037Z" fill="#0C0C0C"/>
<path opacity="0.1" d="M75.1209 47.9317C75.1444 48.1243 75.3745 48.2546 75.6357 48.2242C75.6809 48.2187 75.7253 48.2086 75.7684 48.1939C75.7805 47.9642 75.7812 47.743 75.7746 47.5385C75.702 47.5202 75.6268 47.5159 75.5526 47.5255C75.2915 47.5564 75.0984 47.7383 75.1209 47.9317Z" fill="#0C0C0C"/>
<path opacity="0.5" d="M73.967 48.5273H73.9709C74.0515 48.5102 74.1311 48.4886 74.2093 48.4627C74.3261 48.424 74.4786 48.3587 74.4578 48.2523C74.4336 48.1309 73.8424 46.8891 73.7748 46.7478C73.7685 46.7362 73.758 46.7275 73.7455 46.7234C73.733 46.7194 73.7195 46.7203 73.7077 46.7261C73.6958 46.7318 73.6866 46.7419 73.682 46.7542C73.6773 46.7666 73.6775 46.7802 73.6825 46.7924C73.9347 47.322 74.341 48.191 74.3573 48.2726C74.3445 48.3107 74.1507 48.3851 73.9506 48.4258C73.9379 48.4287 73.9268 48.4364 73.9195 48.4473C73.9123 48.4582 73.9094 48.4714 73.9115 48.4844C73.9135 48.4974 73.9204 48.509 73.9308 48.517C73.9411 48.525 73.954 48.5288 73.967 48.5275V48.5273Z" fill="#0C0C0C"/>
<path d="M67.333 47.6479L69.117 47.2968C70.4645 46.7285 70.8468 44.3634 70.8468 44.3634C70.8468 44.3634 72.5099 45.9589 76.4845 44.9941C76.4845 44.9941 75.6211 39.4047 69.7523 41.1013C67.8598 41.6483 66.5194 43.5914 66.7187 46.165C66.8584 47.9689 67.333 47.6479 67.333 47.6479Z" fill="#0A0A0A"/>
<path d="M69.5576 49.5028C68.953 49.6254 68.3325 49.0731 68.2114 48.4639C68.0902 47.8546 68.5127 47.4194 69.1175 47.2968L69.5106 47.6418L70.078 49.3974L69.5576 49.5028Z" fill="#E98862"/>
<path d="M74.2037 45.7574C74.3549 45.6495 74.5319 45.5839 74.7165 45.5675C74.8092 45.5586 74.9027 45.5638 74.9939 45.5829C75.0858 45.6017 75.1751 45.6321 75.2595 45.6733L75.2622 45.6745C75.2715 45.6783 75.2819 45.6783 75.2912 45.6746C75.3006 45.6709 75.3082 45.6638 75.3124 45.6546C75.3167 45.6455 75.3173 45.6351 75.3142 45.6255C75.3111 45.6159 75.3044 45.6078 75.2956 45.603C75.2061 45.5554 75.111 45.5194 75.0126 45.4958C74.9135 45.4715 74.8114 45.4624 74.7096 45.4687C74.5036 45.4802 74.3044 45.5471 74.1327 45.6625C74.126 45.6667 74.1203 45.6723 74.1158 45.6788C74.1113 45.6854 74.1082 45.6927 74.1066 45.7005C74.105 45.7083 74.105 45.7163 74.1065 45.7241C74.1081 45.7319 74.1112 45.7393 74.1156 45.7459C74.1201 45.7524 74.1258 45.758 74.1324 45.7623C74.139 45.7666 74.1465 45.7695 74.1542 45.7709C74.162 45.7722 74.17 45.772 74.1777 45.7702C74.1853 45.7684 74.1926 45.765 74.1989 45.7604L74.2002 45.7594L74.2037 45.7574Z" fill="#0C0C0C"/>
<path d="M72.5741 45.9842C72.3715 45.9436 72.1619 45.9586 71.967 46.0275C71.8707 46.0609 71.7799 46.1088 71.6978 46.1695C71.6159 46.2294 71.5417 46.2993 71.4771 46.3777C71.4705 46.3855 71.4672 46.3956 71.4679 46.4058C71.4686 46.416 71.4731 46.4256 71.4806 46.4325C71.4881 46.4394 71.498 46.4431 71.5082 46.4428C71.5183 46.4425 71.528 46.4382 71.5351 46.4309L71.5371 46.4287C71.5994 46.358 71.6702 46.2955 71.748 46.2426C71.825 46.1897 71.9094 46.1488 71.9984 46.1213C72.1753 46.0655 72.3636 46.0578 72.5444 46.099L72.5488 46.1C72.5564 46.1021 72.5643 46.1025 72.5721 46.1015C72.5798 46.1004 72.5873 46.0977 72.594 46.0937C72.6008 46.0896 72.6067 46.0843 72.6113 46.0779C72.616 46.0716 72.6193 46.0644 72.6211 46.0567C72.623 46.049 72.6233 46.0411 72.622 46.0333C72.6208 46.0255 72.618 46.018 72.6138 46.0113C72.6097 46.0046 72.6043 45.9988 72.5978 45.9943C72.5914 45.9897 72.5842 45.9865 72.5765 45.9848L72.5741 45.9842Z" fill="#0C0C0C"/>
<path d="M69.1181 47.2674C70.3173 46.8178 70.7151 45.9835 70.8378 45.3627C70.9171 44.9487 70.9097 44.5225 70.816 44.1115L70.7789 44.1219C70.8712 44.5275 70.8783 44.9481 70.7998 45.3566C70.6789 45.9671 70.2869 46.7881 69.1046 47.2311L69.1181 47.2674Z" fill="#0C0C0C"/>
<path d="M84.2796 52.9932L84.9976 50.5392C85.0134 50.4853 85.0401 50.4352 85.0761 50.3923C85.1122 50.3494 85.1566 50.3145 85.2068 50.2898C85.2569 50.2652 85.3116 50.2513 85.3673 50.2491C85.4231 50.2469 85.4787 50.2564 85.5306 50.277C85.6252 50.3181 85.7014 50.3931 85.7442 50.4875C85.7871 50.5819 85.7936 50.6889 85.7625 50.7879L85.6087 51.3141L86.8463 49.8833C86.9812 49.7217 87.2492 49.6104 87.419 49.7748C87.4885 49.8337 87.5361 49.9146 87.5541 50.0043C87.572 50.094 87.5593 50.1871 87.5179 50.2686C87.5197 50.2695 87.5215 50.2705 87.523 50.2718C87.5241 50.273 87.5251 50.2742 87.5258 50.2756L87.7338 50.0264C87.7724 49.9803 87.8206 49.9435 87.8751 49.9185C87.9296 49.8936 87.9889 49.8812 88.0487 49.8823C88.1085 49.8834 88.1673 49.8979 88.2209 49.9248C88.2744 49.9517 88.3213 49.9903 88.3582 50.0378C88.4148 50.1137 88.4437 50.2069 88.4403 50.3018C88.4368 50.3966 88.4011 50.4874 88.3391 50.5589L88.2506 50.665C88.2526 50.669 88.2537 50.6734 88.254 50.6779C88.3303 50.6203 88.4244 50.5919 88.5195 50.5978C88.6147 50.6037 88.7047 50.6435 88.7734 50.71C88.8465 50.7851 88.8888 50.8851 88.8918 50.9902C88.8949 51.0953 88.8585 51.1977 88.7899 51.2769L88.57 51.5401C88.5757 51.5386 88.5817 51.5384 88.5875 51.5397C88.5933 51.541 88.5987 51.5436 88.6032 51.5474C88.6084 51.5522 88.6121 51.5584 88.6139 51.5653C88.696 51.5331 88.7865 51.5289 88.8712 51.5536C88.9559 51.5782 89.0303 51.6302 89.0827 51.7016C89.1365 51.7775 89.1631 51.8695 89.1585 51.9626C89.1538 52.0558 89.1181 52.1446 89.0571 52.2147L87.2026 54.4362C86.9432 54.7469 86.5975 54.9725 86.21 55.084C85.8225 55.1955 85.4107 55.1879 85.0275 55.0621C84.6971 54.9537 84.4216 54.7198 84.2597 54.41C84.0978 54.1003 84.0622 53.7392 84.1604 53.4034L84.2796 52.9932Z" fill="#E98862"/>
<g opacity="0.2">
<path d="M86.2992 51.6915C86.3067 51.6976 86.3162 51.7005 86.3257 51.6997C86.3353 51.6989 86.3441 51.6945 86.3505 51.6872L87.5257 50.325C87.5322 50.3175 87.5354 50.3078 87.5347 50.2979C87.534 50.288 87.5294 50.2788 87.522 50.2723C87.5146 50.2658 87.5049 50.2626 87.4951 50.2633C87.4853 50.264 87.4761 50.2686 87.4697 50.2761L86.2945 51.6382C86.2913 51.6419 86.2889 51.6462 86.2873 51.6508C86.2858 51.6555 86.2852 51.6604 86.2855 51.6653C86.2858 51.6702 86.2871 51.675 86.2893 51.6794C86.2915 51.6837 86.2945 51.6877 86.2982 51.6909L86.2992 51.6915Z" fill="#0C0C0C"/>
</g>
<g opacity="0.2">
<path d="M86.8813 52.2301C86.8888 52.2362 86.8983 52.2392 86.9078 52.2384C86.9174 52.2376 86.9263 52.2331 86.9326 52.2258L88.2441 50.7056C88.2473 50.7019 88.2497 50.6976 88.2513 50.693C88.2528 50.6883 88.2534 50.6834 88.2531 50.6785C88.2527 50.6736 88.2514 50.6689 88.2493 50.6645C88.2471 50.6601 88.2441 50.6562 88.2404 50.653C88.2328 50.6468 88.2232 50.6438 88.2135 50.6445C88.2038 50.6451 88.1947 50.6495 88.1881 50.6567L86.8775 52.1769C86.8743 52.1806 86.8718 52.1849 86.8703 52.1895C86.8688 52.1942 86.8681 52.1991 86.8685 52.204C86.8688 52.2089 86.8701 52.2137 86.8723 52.2181C86.8745 52.2225 86.8775 52.2264 86.8812 52.2296L86.8813 52.2301Z" fill="#0C0C0C"/>
</g>
<g opacity="0.2">
<path d="M87.5084 52.8172C87.5158 52.8234 87.5253 52.8263 87.5349 52.8255C87.5445 52.8247 87.5534 52.8202 87.5597 52.813L88.6059 51.6005C88.6117 51.5929 88.6145 51.5834 88.6136 51.5738C88.6126 51.5643 88.6081 51.5555 88.6009 51.5492C88.5938 51.5429 88.5845 51.5397 88.575 51.5401C88.5655 51.5405 88.5565 51.5445 88.5499 51.5514L87.5037 52.764C87.5005 52.7677 87.498 52.772 87.4965 52.7767C87.4949 52.7813 87.4943 52.7863 87.4947 52.7912C87.495 52.7961 87.4963 52.8008 87.4985 52.8052C87.5007 52.8096 87.5037 52.8135 87.5074 52.8167L87.5084 52.8172Z" fill="#0C0C0C"/>
</g>
<path d="M88.6493 54.0644L85.8734 66.7502C85.867 66.7786 85.8606 66.8083 85.8529 66.8367C85.2295 67.4939 84.5541 68.099 83.8336 68.6461C83.6887 68.7547 83.5438 68.8619 83.3951 68.9652C83.3031 68.9755 83.2106 68.9807 83.1181 68.9807C82.6234 68.9806 82.1374 68.8493 81.7089 68.6002C81.2804 68.3511 80.9245 67.9928 80.6769 67.5613L75.3868 58.3403L80.2718 55.4976L81.927 58.383L83.1399 52.8409L88.6493 54.0644Z" fill="#0CBC8B"/>
<path d="M80.1064 59.848C80.0897 60.0494 80.0564 60.4086 80.0102 60.8813C79.7794 63.2978 79.2397 68.6837 78.9896 71.1725C75.8312 72.1897 72.4417 72.2243 69.2634 71.272H69.2621C66.9149 70.5642 64.755 69.3355 62.9412 67.6762C62.9514 65.4509 62.9194 62.9478 62.7706 61.3385C62.3257 56.5299 62.7463 55.777 63.4373 55.0808C63.4938 55.024 63.5527 54.9685 63.6117 54.9142C64.3259 54.2607 65.2221 53.8345 66.5286 53.6561C67.3927 53.5387 68.6928 53.4535 68.6928 53.4535C68.6928 53.4535 68.8031 55.6981 71.4276 55.8221C75.0009 55.9914 74.7625 53.4535 74.7804 53.4535C75.6792 53.4535 77.6793 53.5103 78.9409 54.1574C78.9422 54.1574 78.9422 54.1574 78.9435 54.1587C79.1975 54.2832 79.4286 54.4505 79.6269 54.6533C81.0718 56.1955 80.359 56.8549 80.1064 59.848Z" fill="#0CBC8B"/>
<path d="M74.499 48.9469C73.9833 49.211 73.3951 49.2945 72.8271 49.1843C72.8074 49.1806 72.7871 49.1825 72.7685 49.19C72.7499 49.1974 72.7338 49.2101 72.722 49.2264C72.7103 49.2428 72.7035 49.2621 72.7023 49.2823C72.7011 49.3024 72.7056 49.3224 72.7153 49.3401C72.8849 49.6406 73.2863 50.1545 73.9753 49.9452C74.4202 49.8099 74.5885 49.3489 74.6508 49.0635C74.6551 49.0438 74.6537 49.0232 74.6468 49.0043C74.6399 48.9853 74.6278 48.9687 74.6118 48.9565C74.5959 48.9442 74.5768 48.9368 74.5568 48.9351C74.5368 48.9334 74.5167 48.9375 74.499 48.9469Z" fill="white"/>
<path d="M74.5313 46.6368C74.6689 46.6368 74.7804 46.5245 74.7804 46.3859C74.7804 46.2473 74.6689 46.1349 74.5313 46.1349C74.3937 46.1349 74.2822 46.2473 74.2822 46.3859C74.2822 46.5245 74.3937 46.6368 74.5313 46.6368Z" fill="#0C0C0C"/>
<path d="M72.137 47.059C72.2746 47.059 72.3861 46.9467 72.3861 46.8081C72.3861 46.6695 72.2746 46.5571 72.137 46.5571C71.9994 46.5571 71.8879 46.6695 71.8879 46.8081C71.8879 46.9467 71.9994 47.059 72.137 47.059Z" fill="#0C0C0C"/>
<path d="M79.5555 65.2655C79.5538 65.2657 79.5522 65.2657 79.5506 65.2655C79.5405 65.2641 79.5314 65.2587 79.5252 65.2505C79.519 65.2424 79.5164 65.232 79.5178 65.2219L79.9582 60.7519C79.9588 60.7468 79.9604 60.7419 79.9629 60.7374C79.9654 60.733 79.9688 60.7291 79.9729 60.726C79.977 60.7229 79.9816 60.7207 79.9865 60.7194C79.9915 60.7182 79.9966 60.718 80.0016 60.7188C80.0117 60.7202 80.0209 60.7256 80.027 60.7338C80.0332 60.742 80.0359 60.7523 80.0345 60.7625L79.5941 65.2325C79.5927 65.2417 79.588 65.2502 79.5809 65.2563C79.5738 65.2624 79.5648 65.2657 79.5555 65.2655Z" fill="#0C0C0C"/>
<path d="M76.8896 65.0502L79.2968 63.9672C79.3497 63.9436 79.4069 63.9312 79.4647 63.931C79.5226 63.9308 79.5799 63.9427 79.6329 63.9659C79.686 63.9892 79.7336 64.0233 79.7729 64.0661C79.8122 64.1089 79.8422 64.1595 79.861 64.2146C79.8927 64.3175 79.8853 64.4285 79.8403 64.5263C79.7952 64.624 79.7158 64.7014 79.6174 64.7435L79.1012 64.976L81.0572 64.9962C81.2752 64.9947 81.5426 65.1329 81.5283 65.3788C81.5289 65.4738 81.4975 65.5662 81.4393 65.6409C81.3811 65.7157 81.2995 65.7683 81.2078 65.7903C81.2083 65.7923 81.2086 65.7944 81.2086 65.7965C81.2084 65.7981 81.2081 65.7997 81.2078 65.8013L81.5432 65.7989C81.6052 65.7985 81.6666 65.8121 81.7228 65.8386C81.779 65.865 81.8286 65.9038 81.8681 65.9521C81.9076 66.0003 81.9358 66.0568 81.9509 66.1175C81.9659 66.1781 81.9674 66.2414 81.9551 66.3027C81.9336 66.3988 81.8801 66.4846 81.8033 66.5457C81.7266 66.6069 81.6314 66.6396 81.5335 66.6385L81.3908 66.6395C81.389 66.6437 81.3864 66.6475 81.3831 66.6507C81.4797 66.6726 81.5654 66.7283 81.625 66.808C81.6845 66.8877 81.714 66.9861 81.7082 67.0856C81.6985 67.1943 81.6486 67.2954 81.5682 67.3686C81.4879 67.4419 81.3831 67.4819 81.2748 67.4808L80.9203 67.4833C80.9253 67.4868 80.9295 67.4915 80.9323 67.497C80.9352 67.5024 80.9368 67.5085 80.9368 67.5147C80.9365 67.522 80.9342 67.5291 80.93 67.5351C81.0108 67.5787 81.0751 67.6478 81.113 67.7318C81.1509 67.8158 81.1604 67.9101 81.1399 68C81.1166 68.094 81.0626 68.1773 80.9865 68.2364C80.9103 68.2955 80.8166 68.3271 80.7205 68.3259L77.7294 68.3473C77.311 68.3503 76.9012 68.2274 76.5526 67.9942C76.2039 67.7611 75.9323 67.4284 75.7726 67.0387C75.6349 66.7027 75.6326 66.3259 75.7663 65.9882C75.9 65.6506 76.1591 65.3788 76.4886 65.2305L76.8896 65.0502Z" fill="#E98862"/>
<g opacity="0.2">
<path d="M79.2716 65.7797C79.2716 65.79 79.2756 65.7998 79.2829 65.8071C79.2901 65.8144 79.2999 65.8185 79.3101 65.8185L81.1702 65.8354C81.1804 65.8355 81.1902 65.8315 81.1975 65.8243C81.2048 65.817 81.2089 65.8072 81.209 65.7969C81.2091 65.7867 81.2051 65.7768 81.1979 65.7695C81.1908 65.7621 81.181 65.758 81.1708 65.7579L79.3104 65.741C79.3002 65.741 79.2905 65.745 79.2833 65.7523C79.276 65.7596 79.272 65.7694 79.272 65.7797H79.2716Z" fill="#0C0C0C"/>
</g>
<g opacity="0.2">
<path d="M79.2416 66.6063C79.2416 66.6166 79.2457 66.6264 79.2529 66.6337C79.2601 66.641 79.2699 66.6451 79.2801 66.6451L81.3558 66.6639C81.366 66.6639 81.3758 66.6598 81.383 66.6526C81.3902 66.6453 81.3943 66.6354 81.3943 66.6252C81.394 66.615 81.3899 66.6053 81.3827 66.5981C81.3756 66.5909 81.3659 66.5867 81.3558 66.5864L79.2799 66.5676C79.2697 66.5676 79.2599 66.5716 79.2527 66.5789C79.2455 66.5862 79.2415 66.596 79.2415 66.6063H79.2416Z" fill="#0C0C0C"/>
</g>
<g opacity="0.2">
<path d="M79.2039 67.5005C79.2039 67.5107 79.208 67.5206 79.2152 67.5279C79.2224 67.5351 79.2322 67.5392 79.2424 67.5392L80.8982 67.5543C80.9084 67.5543 80.9182 67.5502 80.9254 67.543C80.9326 67.5357 80.9367 67.5258 80.9367 67.5156C80.9367 67.5053 80.9326 67.4954 80.9254 67.4882C80.9182 67.4809 80.9084 67.4768 80.8982 67.4768L79.2424 67.4618C79.2322 67.4618 79.2224 67.4659 79.2152 67.4732C79.208 67.4805 79.2039 67.4903 79.2039 67.5006V67.5005Z" fill="#0C0C0C"/>
</g>
<path d="M77.5793 69.3682L69.2634 71.272H69.2621C66.9149 70.5642 64.755 69.3355 62.9412 67.6762C62.7463 67.498 62.5557 67.3154 62.3693 67.1285C62.0445 66.8019 61.7338 66.4623 61.4372 66.1096L62.6014 56.6759C62.7284 55.9155 63.1501 55.237 63.7737 54.7897C64.3973 54.3425 65.1717 54.1631 65.9266 54.291C66.6815 54.419 67.355 54.8438 67.799 55.472C68.243 56.1002 68.4211 56.8803 68.2941 57.6407L67.5581 66.4983L76.8305 64.3839L77.5793 69.3682Z" fill="#0CBC8B"/>
<path d="M65.6825 66.8463C65.6774 66.8467 65.6724 66.846 65.6676 66.8444C65.6627 66.8429 65.6583 66.8403 65.6545 66.837C65.6506 66.8337 65.6475 66.8296 65.6452 66.8251C65.6429 66.8205 65.6415 66.8155 65.6411 66.8104C65.6408 66.8054 65.6414 66.8002 65.643 66.7954C65.6446 66.7906 65.6471 66.7861 65.6504 66.7822C65.6537 66.7783 65.6577 66.7752 65.6622 66.7729C65.6667 66.7706 65.6717 66.7692 65.6767 66.7688L67.5358 66.3684C67.5408 66.3676 67.5459 66.3679 67.5508 66.3691C67.5557 66.3703 67.5604 66.3725 67.5644 66.3755C67.5685 66.3785 67.572 66.3823 67.5746 66.3867C67.5772 66.3911 67.5789 66.3959 67.5797 66.401C67.5804 66.406 67.5802 66.4111 67.5789 66.4161C67.5777 66.421 67.5755 66.4257 67.5725 66.4297C67.5695 66.4338 67.5657 66.4373 67.5614 66.4399C67.557 66.4425 67.5522 66.4443 67.5472 66.445L65.6875 66.8454C65.6859 66.8458 65.6842 66.8461 65.6825 66.8463Z" fill="#0C0C0C"/>
<path d="M77.5793 69.3682C77.5814 69.3781 77.5796 69.3885 77.5744 69.3971C77.5691 69.4058 77.5608 69.412 77.5511 69.4147L69.4724 71.3327C69.4211 71.3183 69.3711 71.3043 69.3211 71.2886L77.4947 69.3501L76.7664 64.4422L67.5492 66.4453C67.5432 66.4462 67.5371 66.4458 67.5313 66.4441C67.5255 66.4423 67.5202 66.4392 67.5158 66.4351C67.512 66.4304 67.5091 66.4251 67.5074 66.4193C67.5056 66.4135 67.505 66.4075 67.5056 66.4015L68.0223 61.3398C68.0232 61.3348 68.0251 61.33 68.0278 61.3257C68.0306 61.3214 68.0341 61.3177 68.0383 61.3149C68.0425 61.312 68.0471 61.3099 68.0521 61.3089C68.0571 61.3078 68.0622 61.3077 68.0671 61.3087C68.0772 61.3103 68.0862 61.3158 68.0922 61.324C68.0982 61.3323 68.1007 61.3426 68.0992 61.3527L67.5902 66.3627L76.7831 64.3556C76.7881 64.3542 76.7933 64.3539 76.7984 64.3548C76.8035 64.3557 76.8084 64.3578 76.8126 64.3608C76.817 64.3632 76.8209 64.3665 76.824 64.3704C76.827 64.3744 76.8293 64.379 76.8305 64.3839L77.5793 69.3682Z" fill="#0C0C0C"/>
<path d="M15.0618 91.0269C23.3801 91.0269 30.1235 84.2339 30.1235 75.8543C30.1235 67.4747 23.3801 60.6817 15.0618 60.6817C6.74338 60.6817 0 67.4747 0 75.8543C0 84.2339 6.74338 91.0269 15.0618 91.0269Z" fill="white"/>
<path opacity="0.09" d="M15.0618 91.0269C23.3801 91.0269 30.1235 84.2339 30.1235 75.8543C30.1235 67.4747 23.3801 60.6817 15.0618 60.6817C6.74338 60.6817 0 67.4747 0 75.8543C0 84.2339 6.74338 91.0269 15.0618 91.0269Z" fill="#367CFF"/>
<path d="M10.9139 67.2485C10.9139 67.2485 11.0771 71.8182 14.1049 72.0282L14.6178 66.0022L10.9139 67.2485Z" fill="#0A0A0A"/>
<path d="M11.497 72.9616C12.4877 72.9616 13.2907 72.1526 13.2907 71.1547C13.2907 70.1568 12.4877 69.3478 11.497 69.3478C10.5064 69.3478 9.70333 70.1568 9.70333 71.1547C9.70333 72.1526 10.5064 72.9616 11.497 72.9616Z" fill="#0A0A0A"/>
<path d="M18.5153 74.1491C18.4993 74.1469 18.3221 77.11 14.905 76.8517C12.5393 76.6736 11.6959 74.1452 11.6418 74.1452C11.9121 74.1 12.1788 74.0348 12.4397 73.9503C12.8121 73.7487 13.273 73.5389 13.3931 72.8102C13.4623 72.3902 13.345 70.2414 13.381 69.8165L17.0123 70.633C16.961 71.5304 16.6063 73.611 17.851 73.9794C18.058 74.0402 18.2811 74.0963 18.5153 74.1491Z" fill="#E98862"/>
<path opacity="0.5" d="M17.063 73.1287C17.0061 72.9439 16.9695 72.7533 16.9538 72.5605C16.9139 72.1208 16.9219 71.678 16.9775 71.2401C16.2395 71.1397 15.5442 70.8328 14.9706 70.3543C14.9032 70.6051 14.5324 71.7013 14.6351 71.9396C14.8292 72.3911 15.7412 73.1287 17.063 73.1287Z" fill="#0C0C0C"/>
<path d="M16.4942 72.3304C15.056 72.3489 13.258 71.6179 13.0352 69.6717L12.8342 67.9152C12.6112 65.969 13.4452 64.273 15.2643 64.062C17.0833 63.8507 18.6235 65.2703 18.8465 67.2166L18.9355 67.994C19.021 68.7411 19.0602 72.2976 16.4942 72.3304Z" fill="#E98862"/>
<path d="M18.4142 67.9418C18.5387 67.9418 18.6397 67.8401 18.6397 67.7146C18.6397 67.5891 18.5387 67.4874 18.4142 67.4874C18.2896 67.4874 18.1886 67.5891 18.1886 67.7146C18.1886 67.8401 18.2896 67.9418 18.4142 67.9418Z" fill="#0C0C0C"/>
<path d="M16.109 68.2073C16.2336 68.2073 16.3345 68.1056 16.3345 67.9802C16.3345 67.8547 16.2336 67.753 16.109 67.753C15.9844 67.753 15.8835 67.8547 15.8835 67.9802C15.8835 68.1056 15.9844 68.2073 16.109 68.2073Z" fill="#0C0C0C"/>
<path opacity="0.5" d="M17.2529 69.7098H17.2565C17.3302 69.7007 17.4034 69.6875 17.4756 69.6703C17.5836 69.6438 17.7259 69.5973 17.7148 69.4999C17.7019 69.3891 17.2636 68.2276 17.2136 68.0956C17.2114 68.0899 17.2081 68.0847 17.204 68.0803C17.1998 68.0758 17.1948 68.0722 17.1893 68.0698C17.1837 68.0673 17.1778 68.0659 17.1717 68.0657C17.1656 68.0655 17.1596 68.0666 17.1539 68.0688C17.1483 68.0709 17.1431 68.0742 17.1387 68.0784C17.1343 68.0826 17.1307 68.0876 17.1283 68.0932C17.1258 68.0988 17.1244 68.1048 17.1243 68.1109C17.1241 68.117 17.1251 68.1231 17.1273 68.1288C17.3143 68.6234 17.6145 69.436 17.6229 69.5108C17.5075 69.5762 17.3782 69.6128 17.2459 69.6175C17.2337 69.6184 17.2223 69.6242 17.2144 69.6336C17.2064 69.6429 17.2024 69.6551 17.2034 69.6674C17.2043 69.6797 17.2101 69.6911 17.2193 69.6991C17.2286 69.7072 17.2407 69.7112 17.2529 69.7102V69.7098Z" fill="#0C0C0C"/>
<path opacity="0.5" d="M16.9278 70.5198C17.2232 70.5028 17.5106 70.4161 17.7667 70.2668C17.7768 70.2604 17.7841 70.2505 17.7871 70.2389C17.79 70.2273 17.7885 70.215 17.7828 70.2046C17.777 70.1941 17.7675 70.1863 17.7562 70.1827C17.7449 70.1791 17.7326 70.18 17.7219 70.1852C17.1688 70.4935 16.6398 70.5114 16.1923 70.2369C16.1833 70.2311 16.174 70.2257 16.1644 70.2209C16.1533 70.2165 16.141 70.2167 16.13 70.2212C16.119 70.2258 16.1101 70.2345 16.1053 70.2454C16.1005 70.2564 16.1 70.2688 16.104 70.2801C16.108 70.2913 16.1162 70.3006 16.1268 70.306C16.1303 70.3078 16.1362 70.3114 16.1443 70.3165C16.3795 70.4613 16.6523 70.5321 16.9278 70.5198Z" fill="#0C0C0C"/>
<path d="M11.3552 68.4145L12.9852 68.2346C14.239 67.8267 14.7599 65.7289 14.7599 65.7289C14.7599 65.7289 15.8835 67.016 19.2129 66.4283C19.2129 66.4283 19.0839 62.1044 14.0203 62.7131C12.2572 62.9253 10.9278 64.7064 10.914 67.0352C10.9046 68.6671 11.3552 68.4145 11.3552 68.4145Z" fill="#0A0A0A"/>
<path d="M13.2161 70.2515C12.6633 70.3161 12.1469 69.7721 12.0832 69.2152C12.0195 68.6582 12.4324 68.2992 12.9852 68.235L13.3128 68.5749L13.6914 70.1962L13.2161 70.2515Z" fill="#E98862"/>
<path d="M17.6165 67.1477C17.7796 67.0568 17.9639 67.0117 18.1502 67.017C18.2421 67.0191 18.3333 67.0351 18.4206 67.0644C18.5073 67.0932 18.59 67.1328 18.6669 67.1823C18.6746 67.1873 18.6801 67.195 18.6822 67.2039C18.6844 67.2128 18.6831 67.2223 18.6786 67.2302C18.674 67.2382 18.6666 67.2441 18.6578 67.2466C18.6491 67.2492 18.6397 67.2483 18.6316 67.2441L18.6293 67.2428C18.5565 67.1992 18.4785 67.1651 18.3972 67.1411C18.3167 67.1169 18.233 67.1051 18.149 67.1061C17.9818 67.107 17.8178 67.1524 17.6737 67.2378L17.6703 67.24C17.6643 67.2439 17.6576 67.2466 17.6506 67.2479C17.6436 67.2492 17.6364 67.249 17.6294 67.2474C17.6225 67.2459 17.6159 67.2429 17.6101 67.2387C17.6044 67.2345 17.5995 67.2292 17.5958 67.2231C17.5921 67.2169 17.5896 67.2101 17.5886 67.203C17.5876 67.1959 17.588 67.1887 17.5898 67.1817C17.5916 67.1748 17.5947 67.1683 17.5991 67.1626C17.6035 67.1569 17.6089 67.1522 17.6151 67.1486L17.6165 67.1477Z" fill="#0C0C0C"/>
<path d="M16.1557 67.4184C15.9963 67.3675 15.8263 67.3602 15.6632 67.3971C15.581 67.4152 15.5021 67.4457 15.429 67.4876C15.3551 67.5292 15.2867 67.58 15.2254 67.6388L15.2234 67.6406C15.2165 67.6458 15.2078 67.6482 15.1992 67.6475C15.1905 67.6467 15.1825 67.6427 15.1766 67.6363C15.1706 67.63 15.1672 67.6216 15.167 67.6129C15.1668 67.6041 15.1698 67.5956 15.1754 67.5889C15.2393 67.5233 15.3111 67.4661 15.3892 67.4186C15.4678 67.3704 15.5531 67.3343 15.6423 67.3115C15.8227 67.2644 16.0123 67.267 16.1914 67.3189C16.1984 67.3207 16.2049 67.3238 16.2105 67.3282C16.2162 67.3326 16.221 67.338 16.2245 67.3443C16.228 67.3506 16.2302 67.3575 16.231 67.3646C16.2318 67.3718 16.2312 67.379 16.2292 67.3859C16.2271 67.3928 16.2237 67.3992 16.2192 67.4048C16.2146 67.4103 16.209 67.4149 16.2026 67.4182C16.1963 67.4215 16.1894 67.4235 16.1822 67.424C16.1751 67.4245 16.1679 67.4236 16.1612 67.4213H16.1598L16.1557 67.4184Z" fill="#0C0C0C"/>
<path opacity="0.52" d="M16.9587 70.9598C17.0121 70.9576 17.0653 70.9508 17.1177 70.9395C17.1293 70.9366 17.1394 70.9293 17.1457 70.919C17.1521 70.9088 17.1543 70.8965 17.1518 70.8846C17.1493 70.8728 17.1424 70.8624 17.1325 70.8557C17.1225 70.8489 17.1104 70.8463 17.0986 70.8483C17.0168 70.8724 16.931 70.8786 16.8467 70.8666C16.7624 70.8545 16.6816 70.8245 16.6098 70.7785C16.6003 70.7707 16.5881 70.767 16.5759 70.7682C16.5638 70.7694 16.5526 70.7755 16.5448 70.7851C16.537 70.7946 16.5334 70.8069 16.5346 70.8192C16.5358 70.8314 16.5419 70.8427 16.5513 70.8505C16.6705 70.9333 16.8144 70.9719 16.9587 70.9598Z" fill="#0C0C0C"/>
<path opacity="0.1" d="M15.7966 69.7458C16.0338 69.7375 16.2211 69.5887 16.215 69.4134C16.2089 69.2382 16.0117 69.1029 15.7746 69.1113C15.5375 69.1197 15.3501 69.2685 15.3562 69.4437C15.3623 69.6189 15.5595 69.7542 15.7966 69.7458Z" fill="#0C0C0C"/>
<path opacity="0.1" d="M18.3345 69.2622C18.3412 69.4372 18.5383 69.5721 18.7755 69.5643C18.8165 69.5628 18.8572 69.557 18.897 69.5471C18.9251 69.3415 18.9423 69.1428 18.9516 68.9584C18.8878 68.9365 18.8204 68.9267 18.753 68.9297C18.5163 68.9377 18.3291 69.0861 18.3345 69.2622Z" fill="#0C0C0C"/>
<path d="M23.6189 77.27C23.6086 78.3046 23.256 79.538 23.1304 81.0285C23.097 81.4263 22.2494 82.5771 22.1263 83.857C21.9712 85.487 22.3162 88.0288 22.3624 89.1279C19.9799 90.456 17.2849 91.1092 14.5635 91.0182C11.8422 90.9272 9.19604 90.0955 6.90622 88.6113C6.84468 85.7879 6.7716 82.302 6.678 81.4664C6.37414 78.7076 6.45619 76.9626 6.89468 76.1464C7.6114 74.8135 8.88712 74.4066 10.2218 74.2232C11.0373 74.1121 12.2617 74.0334 12.2617 74.0334C12.2617 74.0334 12.3656 76.1477 14.8401 76.2652C18.2082 76.4253 17.9839 74.0334 18.0005 74.0334C19.2224 74.0334 21.5379 74.3278 22.4252 74.9375C23.3663 75.5819 23.6304 76.3466 23.6189 77.27Z" fill="#FFC239"/>
<path d="M11.9822 78.8793L7.41267 88.9247C5.65818 87.8813 4.13167 86.4907 2.92519 84.8368L6.73698 76.4571L11.9822 78.8793Z" fill="#FFC239"/>
<path d="M27.3101 84.6849C26.4149 85.9431 25.3345 87.0563 24.1061 87.9862C23.7017 88.2937 23.2819 88.5799 22.8483 88.8438L18.1582 78.457L23.4099 76.0495L27.3101 84.6849Z" fill="#FFC239"/>
<path d="M46.4076 31.5942C55.0684 31.5942 62.0893 24.5216 62.0893 15.7971C62.0893 7.07259 55.0684 0 46.4076 0C37.7469 0 30.726 7.07259 30.726 15.7971C30.726 24.5216 37.7469 31.5942 46.4076 31.5942Z" fill="white"/>
<path opacity="0.09" d="M46.4076 31.5942C55.0684 31.5942 62.0893 24.5216 62.0893 15.7971C62.0893 7.07259 55.0684 0 46.4076 0C37.7469 0 30.726 7.07259 30.726 15.7971C30.726 24.5216 37.7469 31.5942 46.4076 31.5942Z" fill="#367CFF"/>
<path d="M49.4399 6.33748C49.4399 6.33748 50.4329 5.25333 50.3561 3.18837C50.2967 1.58954 49.051 2.85954 49.051 2.85954C49.051 2.85954 48.997 1.70875 48.2048 1.96835C47.4126 2.22796 47.169 3.49163 47.169 3.49163" fill="#0C0C0C"/>
<path d="M44.027 2.866C44.027 2.866 40.0722 4.0368 42.5193 9.27619L42.8805 9.23512L43.6136 9.15194" fill="#0C0C0C"/>
<path d="M49.6314 14.711C49.6135 14.7087 49.4135 18.051 45.559 17.7591C42.8906 17.5577 41.9392 14.7058 41.878 14.7058C42.1657 14.6442 42.5212 14.5508 42.6625 14.5187C42.9705 14.4467 43.2494 14.2819 43.4622 14.0463C43.6749 13.8108 43.8114 13.5155 43.8535 13.1999C43.9316 12.7261 43.7991 10.3023 43.8399 9.82304L47.9358 10.7439C47.8786 11.7564 47.4781 14.1033 48.882 14.5187C49.1158 14.5875 49.3675 14.6508 49.6314 14.711Z" fill="#E98862"/>
<path opacity="0.52" d="M47.9934 13.5597C47.9293 13.3514 47.888 13.1367 47.8702 12.9193C47.8252 12.4233 47.8342 11.9239 47.897 11.4299C47.0645 11.3167 46.2802 10.9705 45.6332 10.4307C45.5571 10.7137 45.1388 11.9501 45.2546 12.219C45.4736 12.7274 46.5023 13.5597 47.9934 13.5597Z" fill="#0C0C0C"/>
<path d="M47.3248 12.4956C45.7093 12.6419 43.6239 11.9769 43.2058 9.80754L42.8284 7.85017C42.4103 5.68033 43.2024 3.70099 45.23 3.30448C47.2576 2.90784 49.1121 4.37003 49.5303 6.53935L49.697 7.40587C49.7493 7.70438 49.7812 8.00615 49.7926 8.30906C49.8288 9.10984 49.8807 10.3269 49.4986 11.2266C49.1381 12.0762 48.3571 12.4022 47.3248 12.4956Z" fill="#E98862"/>
<path opacity="0.5" d="M47.569 10.3509C47.8649 10.3453 48.1553 10.2697 48.4169 10.1303C48.4226 10.1277 48.4277 10.124 48.4319 10.1194C48.4361 10.1147 48.4394 10.1093 48.4414 10.1033C48.4435 10.0974 48.4444 10.0911 48.444 10.0848C48.4436 10.0786 48.4419 10.0724 48.4391 10.0668C48.4363 10.0612 48.4324 10.0562 48.4276 10.0522C48.4228 10.0481 48.4173 10.0451 48.4113 10.0432C48.4054 10.0414 48.3991 10.0408 48.3929 10.0415C48.3867 10.0421 48.3807 10.0441 48.3752 10.0471C47.8111 10.334 47.2817 10.3313 46.8449 10.0402C46.8361 10.034 46.8269 10.0283 46.8176 10.0231C46.8121 10.0204 46.8062 10.0188 46.8001 10.0184C46.7941 10.018 46.788 10.0188 46.7822 10.0208C46.7765 10.0228 46.7712 10.0259 46.7666 10.0299C46.7621 10.034 46.7584 10.0389 46.7557 10.0444C46.753 10.0498 46.7514 10.0558 46.751 10.0619C46.7507 10.068 46.7515 10.0741 46.7534 10.0799C46.7554 10.0857 46.7584 10.091 46.7625 10.0956C46.7665 10.1002 46.7713 10.104 46.7768 10.1067C46.7802 10.1086 46.7859 10.1125 46.7938 10.1178C47.0234 10.2715 47.2933 10.3527 47.569 10.3509Z" fill="#0C0C0C"/>
<path opacity="0.52" d="M47.5832 10.7922C47.6368 10.7921 47.6902 10.7873 47.7429 10.778C47.7488 10.777 47.7546 10.7748 47.7597 10.7715C47.7648 10.7683 47.7693 10.7641 47.7728 10.7591C47.7763 10.7541 47.7788 10.7485 47.7801 10.7425C47.7815 10.7365 47.7816 10.7304 47.7806 10.7244C47.7796 10.7183 47.7774 10.7126 47.7742 10.7074C47.771 10.7022 47.7668 10.6978 47.7618 10.6942C47.7569 10.6907 47.7513 10.6882 47.7454 10.6868C47.7394 10.6855 47.7333 10.6853 47.7273 10.6863C47.6448 10.7072 47.5587 10.71 47.475 10.6948C47.3912 10.6795 47.3116 10.6464 47.2415 10.5977C47.2323 10.5899 47.2204 10.586 47.2084 10.5869C47.1963 10.5878 47.1851 10.5934 47.1771 10.6025C47.1691 10.6116 47.165 10.6235 47.1657 10.6357C47.1663 10.6478 47.1716 10.6592 47.1805 10.6675C47.2964 10.7547 47.4387 10.7988 47.5832 10.7922Z" fill="#0C0C0C"/>
<path d="M49.045 7.95246C49.1855 7.95246 49.2994 7.83773 49.2994 7.69621C49.2994 7.55469 49.1855 7.43996 49.045 7.43996C48.9045 7.43996 48.7906 7.55469 48.7906 7.69621C48.7906 7.83773 48.9045 7.95246 49.045 7.95246Z" fill="#0C0C0C"/>
<path d="M46.5715 8.24371C46.712 8.24371 46.8259 8.12898 46.8259 7.98746C46.8259 7.84594 46.712 7.73121 46.5715 7.73121C46.431 7.73121 46.3171 7.84594 46.3171 7.98746C46.3171 8.12898 46.431 8.24371 46.5715 8.24371Z" fill="#0C0C0C"/>
<path d="M43.4591 10.4438C42.8429 10.5643 42.2155 9.99792 42.0957 9.37719C41.9759 8.75646 42.4097 8.31655 43.0258 8.19605L43.4232 8.54981L43.9886 10.3402L43.4591 10.4438Z" fill="#E98862"/>
<path d="M43.8939 9.33199C43.8939 9.33199 43.5496 6.21736 44.4416 5.85857C45.0356 5.6195 46.6897 6.22808 48.0274 5.70939C48.6125 5.48233 49.2151 5.52857 49.3254 5.80639C49.3691 5.9163 49.4519 4.20639 48.2789 3.134C47.345 2.28027 44.8218 2.45114 43.755 2.98146C40.8014 4.44985 42.9228 8.3544 42.9228 8.3544L43.2523 9.38972L43.8939 9.33199Z" fill="#0C0C0C"/>
<g opacity="0.52">
<path d="M47.9483 9.57958H47.9522C48.151 9.54083 48.48 9.45468 48.4523 9.30499C48.4286 9.18087 47.8368 7.90687 47.7697 7.76208C47.7668 7.75592 47.7627 7.75038 47.7577 7.74579C47.7528 7.7412 47.7469 7.73765 47.7406 7.73533C47.7342 7.73302 47.7274 7.73199 47.7207 7.7323C47.7139 7.73261 47.7073 7.73426 47.7012 7.73715C47.6951 7.74005 47.6896 7.74412 47.685 7.74916C47.6805 7.75419 47.6769 7.76007 47.6746 7.76648C47.6723 7.77288 47.6713 7.77968 47.6716 7.78648C47.6719 7.79328 47.6736 7.79996 47.6764 7.80612C47.9388 8.37028 48.335 9.23977 48.3511 9.32437C48.3383 9.36311 48.1393 9.43789 47.9336 9.47755C47.92 9.47958 47.9078 9.48698 47.8996 9.49811C47.8914 9.50924 47.888 9.52319 47.89 9.53689C47.892 9.5506 47.8994 9.56293 47.9104 9.57117C47.9215 9.57942 47.9353 9.58291 47.9489 9.58087L47.9483 9.57958Z" fill="#0C0C0C"/>
</g>
<path d="M48.0888 6.45785C48.2876 6.36183 48.5085 6.32167 48.7281 6.34161C48.8358 6.35075 48.9415 6.37608 49.0418 6.41678C49.1408 6.45644 49.2345 6.50851 49.3205 6.57177C49.3365 6.5829 49.3476 6.59984 49.3514 6.61903C49.3552 6.63821 49.3515 6.65814 49.3411 6.67463C49.3306 6.69111 49.3142 6.70286 49.2953 6.70741C49.2764 6.71195 49.2565 6.70893 49.2398 6.69899L49.234 6.69692C49.1559 6.64672 49.0719 6.60658 48.984 6.57745C48.8975 6.54836 48.8071 6.53264 48.7159 6.53083C48.5361 6.52578 48.3582 6.56869 48.2002 6.65521L48.1937 6.65895C48.1808 6.66635 48.1666 6.67112 48.1519 6.673C48.1373 6.67487 48.1223 6.67382 48.1081 6.66989C48.0938 6.66596 48.0804 6.65924 48.0687 6.6501C48.057 6.64097 48.0472 6.6296 48.0399 6.61665C48.0325 6.6037 48.0278 6.58942 48.0259 6.57463C48.0241 6.55984 48.0251 6.54482 48.029 6.53043C48.0329 6.51604 48.0396 6.50257 48.0487 6.49079C48.0577 6.479 48.069 6.46912 48.0819 6.46173L48.0888 6.45785Z" fill="#0C0C0C"/>
<path d="M46.6304 6.85488C46.4572 6.80607 46.2743 6.80415 46.1002 6.84933C46.0117 6.87151 45.9271 6.90709 45.8491 6.95485C45.7696 7.00294 45.6964 7.06086 45.6312 7.12727L45.6271 7.13141C45.613 7.14511 45.5942 7.15274 45.5747 7.15268C45.5551 7.15262 45.5364 7.14486 45.5224 7.13107C45.5084 7.11727 45.5004 7.09853 45.4999 7.07883C45.4995 7.05914 45.5067 7.04004 45.52 7.02563C45.5899 6.94449 45.6696 6.87258 45.7573 6.81161C45.8462 6.74944 45.9437 6.70098 46.0467 6.66786C46.1497 6.63366 46.2569 6.61384 46.3652 6.60897C46.4761 6.60282 46.5874 6.61256 46.6956 6.6379C46.7247 6.64475 46.7499 6.66297 46.7657 6.68855C46.7815 6.71412 46.7865 6.74497 46.7797 6.77429C46.7729 6.80361 46.7548 6.82901 46.7294 6.8449C46.7041 6.86079 46.6734 6.86587 46.6443 6.85902L46.6377 6.85721L46.6304 6.85488Z" fill="#0C0C0C"/>
<path d="M47.4105 4.39436C47.8503 4.2148 47.9942 3.54055 47.7318 2.88839C47.4694 2.23623 46.9002 1.8531 46.4604 2.03266C46.0205 2.21222 45.8767 2.88646 46.139 3.53862C46.4014 4.19079 46.9706 4.57391 47.4105 4.39436Z" fill="#0C0C0C"/>
<path d="M54.9587 18.1648C54.9741 19.2355 54.5587 20.4392 54.4202 22.0692C54.392 22.3998 54.3253 23.1283 54.2369 24.0776C54.092 25.6494 53.8869 27.8231 53.7074 29.7825C51.1404 31.1397 48.2505 31.7546 45.3579 31.559C42.4654 31.3634 39.683 30.365 37.3191 28.6743C37.2627 28.6317 37.2063 28.5903 37.1499 28.5503C36.9999 26.3353 36.8229 24.0104 36.6614 22.5419C36.3575 19.7999 35.9434 18.4347 36.1754 17.5125C36.194 17.434 36.2189 17.3571 36.2498 17.2826C36.9178 15.6501 39.0449 14.9216 40.486 14.7253C41.3655 14.6052 42.6887 14.5187 42.6887 14.5187C42.6887 14.5187 42.8002 16.8022 45.4709 16.9287C49.1071 17.1018 48.8647 14.5187 48.8827 14.5187C49.4712 14.5187 52.6778 14.9501 53.4791 15.477C53.6135 15.5649 53.742 15.6615 53.8638 15.7663C54.2119 16.0589 54.4909 16.426 54.6803 16.8409C54.8698 17.2558 54.9649 17.7081 54.9587 18.1648Z" fill="#383838"/>
<path d="M41.5707 19.8206L37.3191 28.6743C37.2627 28.6317 37.2063 28.5903 37.1499 28.5503C35.5017 27.3329 34.104 25.8047 33.0342 24.0505L36.1754 17.5125L36.2998 17.2529L41.5707 19.8206Z" fill="#383838"/>
<path d="M41.1604 20.8396L37.2935 28.6549C37.2678 28.6355 37.2435 28.6175 37.2178 28.6007L41.0796 20.7996C41.0852 20.7887 41.0947 20.7805 41.1062 20.7766C41.1177 20.7728 41.1302 20.7736 41.1412 20.7789C41.1517 20.7844 41.1596 20.7939 41.1632 20.8053C41.1668 20.8166 41.1658 20.829 41.1604 20.8396Z" fill="white"/>
<path d="M60.7668 22.157C59.9961 23.9166 58.9138 25.5202 57.573 26.8893L54.2369 24.0776L49.9994 20.5051L53.8638 15.7663L53.8753 15.7521L60.7668 22.157Z" fill="#383838"/>
<path d="M54.2883 24.1121C54.2992 24.1115 54.3095 24.107 54.3173 24.0994C54.3252 24.0918 54.33 24.0816 54.331 24.0706L54.5511 21.4707C54.5522 21.4587 54.5484 21.4468 54.5407 21.4375C54.533 21.4283 54.522 21.4225 54.5101 21.4215C54.4982 21.4206 54.4865 21.4244 54.4774 21.4322C54.4683 21.4399 54.4626 21.4509 54.4614 21.4628L54.2412 24.0629C54.2402 24.0749 54.244 24.0867 54.2517 24.0959C54.2594 24.1051 54.2704 24.1109 54.2823 24.1119L54.2883 24.1121Z" fill="white"/>
<path d="M120.249 99.9999C128.509 99.9999 135.206 93.2541 135.206 84.9328C135.206 76.6115 128.509 69.8657 120.249 69.8657C111.988 69.8657 105.292 76.6115 105.292 84.9328C105.292 93.2541 111.988 99.9999 120.249 99.9999Z" fill="white"/>
<path opacity="0.09" d="M105.291 84.9324C105.291 87.9123 106.169 90.8254 107.812 93.3031C109.455 95.7809 111.791 97.712 114.524 98.8524C117.257 99.9928 120.265 100.291 123.166 99.7099C126.067 99.1285 128.732 97.6936 130.824 95.5864C132.916 93.4793 134.34 90.7946 134.917 87.872C135.495 84.9493 135.198 81.9198 134.066 79.1667C132.934 76.4136 131.017 74.0605 128.558 72.4049C126.098 70.7494 123.206 69.8657 120.248 69.8657C118.282 69.8584 116.334 70.2432 114.516 70.9978C112.698 71.7523 111.046 72.8619 109.656 74.2624C108.266 75.6629 107.164 77.3267 106.415 79.158C105.666 80.9893 105.284 82.9518 105.291 84.9324Z" fill="#367CFF"/>
<path d="M127.035 76.6183C126.796 79.4081 127.018 80.354 128.168 81.9525C129.138 83.3001 123.619 82.1546 121.177 81.7165L123.332 75.3726C123.332 75.3726 127.119 75.6387 127.035 76.6183Z" fill="#0A0A0A"/>
<path d="M118.611 75.4576C117.891 78.162 117.972 78.9987 116.562 80.4189C115.393 81.596 119.947 81.8354 122.391 82.263L122.514 75.5597C122.514 75.5597 118.864 74.5079 118.611 75.4576Z" fill="#0A0A0A"/>
<path d="M118.854 83.3235C118.87 83.3213 119.049 86.3122 122.498 86.0514C124.886 85.8713 125.737 83.3192 125.792 83.3192C125.519 83.2736 125.25 83.2078 124.987 83.1225C124.611 82.919 124.145 82.7072 124.024 81.9717C123.954 81.5477 124.073 79.3789 124.036 78.9495L120.371 79.7736C120.422 80.6795 120.781 82.7796 119.525 83.1512C119.315 83.2132 119.09 83.2698 118.854 83.3235Z" fill="#E98862"/>
<path opacity="0.5" d="M120.32 82.2935C120.377 82.1071 120.414 81.9149 120.43 81.7204C120.47 81.2766 120.462 80.8297 120.406 80.3876C121.151 80.2863 121.853 79.9766 122.432 79.4936C122.5 79.7469 122.874 80.8531 122.771 81.0937C122.575 81.5486 121.654 82.2935 120.32 82.2935Z" fill="#0C0C0C"/>
<path d="M120.794 81.3617C122.239 81.5025 124.108 80.9203 124.496 78.9818L124.845 77.2326C125.233 75.2941 124.536 73.5176 122.724 73.1503C120.912 72.783 119.244 74.0802 118.856 76.0184L118.702 76.7933C118.553 77.5366 118.215 81.1106 120.794 81.3617Z" fill="#E98862"/>
<path d="M126.594 77.7847L124.964 77.6048C121.775 77.014 120.994 74.4215 120.994 74.4215C120.994 74.4215 119.656 76.2208 118.52 75.8076C118.52 75.8076 118.886 71.4691 123.929 72.2315C125.91 72.531 127.035 74.1856 127.035 76.4051C127.035 78.0367 126.594 77.7847 126.594 77.7847Z" fill="#0A0A0A"/>
<path opacity="0.1" d="M122.18 78.5544C122.2 78.3786 122.025 78.213 121.787 78.1844C121.549 78.1558 121.339 78.2751 121.319 78.4509C121.298 78.6266 121.474 78.7922 121.711 78.8208C121.949 78.8494 122.159 78.7301 122.18 78.5544Z" fill="#0C0C0C"/>
<path opacity="0.1" d="M119.2 78.119C119.179 78.2944 118.969 78.4136 118.731 78.3853C118.69 78.3803 118.65 78.371 118.611 78.3577C118.6 78.1484 118.599 77.9472 118.605 77.7608C118.671 77.7443 118.739 77.7402 118.807 77.7489C119.044 77.7772 119.22 77.9428 119.2 78.119Z" fill="#0C0C0C"/>
<path opacity="0.5" d="M120.25 78.6613H120.247C120.173 78.6459 120.101 78.6264 120.03 78.6029C119.923 78.567 119.784 78.5083 119.803 78.4113C119.825 78.3008 120.364 77.1699 120.425 77.0414C120.428 77.0357 120.431 77.0305 120.436 77.0262C120.44 77.0219 120.446 77.0186 120.452 77.0164C120.458 77.0143 120.464 77.0133 120.47 77.0136C120.476 77.0139 120.482 77.0155 120.488 77.0182C120.494 77.0209 120.499 77.0247 120.503 77.0295C120.507 77.0342 120.51 77.0397 120.512 77.0456C120.514 77.0516 120.515 77.0579 120.514 77.0641C120.514 77.0704 120.512 77.0765 120.509 77.0821C120.28 77.5636 119.91 78.3555 119.895 78.4299C120.005 78.5055 120.132 78.5533 120.265 78.5692C120.277 78.5717 120.287 78.5786 120.294 78.5886C120.301 78.5985 120.303 78.6107 120.302 78.6227C120.3 78.6346 120.293 78.6453 120.284 78.6526C120.274 78.6599 120.262 78.6633 120.25 78.662V78.6613Z" fill="#0C0C0C"/>
<path d="M124.265 79.5495C124.816 79.6611 125.381 79.1583 125.492 78.6036C125.602 78.0488 125.217 77.6525 124.666 77.5409L124.309 77.855L123.792 79.4536L124.265 79.5495Z" fill="#E98862"/>
<path d="M120.035 76.139C119.967 76.0905 119.893 76.0514 119.814 76.0228C119.735 75.9928 119.652 75.974 119.568 75.9668C119.483 75.9587 119.398 75.9635 119.315 75.9809C119.231 75.9981 119.15 76.0258 119.073 76.0634L119.071 76.0645C119.063 76.0675 119.053 76.0673 119.045 76.0639C119.037 76.0605 119.03 76.0541 119.027 76.0461C119.023 76.038 119.022 76.0288 119.025 76.0203C119.027 76.0118 119.033 76.0045 119.04 75.9999C119.122 75.9566 119.208 75.9238 119.298 75.9021C119.388 75.88 119.481 75.8718 119.574 75.8776C119.762 75.8881 119.943 75.9492 120.1 76.0544C120.111 76.0626 120.119 76.075 120.121 76.0888C120.124 76.1027 120.121 76.1169 120.113 76.1286C120.105 76.1402 120.093 76.1483 120.079 76.1511C120.065 76.1539 120.051 76.1512 120.04 76.1437L120.038 76.1428L120.035 76.139Z" fill="#0C0C0C"/>
<path d="M121.519 76.3457C121.703 76.3087 121.894 76.3223 122.071 76.385C122.159 76.4154 122.242 76.459 122.317 76.5142C122.392 76.5686 122.459 76.6323 122.518 76.7037C122.524 76.7107 122.528 76.72 122.527 76.7295C122.527 76.7391 122.523 76.748 122.516 76.7544C122.509 76.7609 122.499 76.7642 122.49 76.7638C122.48 76.7634 122.472 76.7592 122.465 76.7521L122.463 76.7502C122.406 76.6858 122.342 76.6288 122.271 76.5807C122.201 76.5326 122.124 76.4953 122.043 76.4703C121.882 76.4195 121.71 76.4124 121.546 76.4499L121.542 76.4509C121.528 76.4543 121.513 76.4521 121.501 76.4447C121.489 76.4373 121.48 76.4253 121.477 76.4114C121.474 76.3975 121.476 76.3828 121.483 76.3705C121.49 76.3583 121.502 76.3495 121.516 76.346L121.519 76.3457Z" fill="#0C0C0C"/>
<path d="M113.299 98.2769C112.711 98.0186 112.271 97.7422 111.267 96.9802C110.543 96.4324 109.869 95.8191 109.255 95.1478L114.411 85.2655L114.635 84.8362L119.285 87.2988L115.252 95.0315L115.233 95.0656L115.268 95.2031" fill="#EA394A"/>
<path d="M130.444 90.3272C130.309 91.7926 130.28 94.0717 130.289 96.098C128.345 97.8743 125.971 99.1036 123.406 99.6625C120.841 100.221 118.175 100.09 115.676 99.2816C115.37 96.2258 114.915 91.7351 114.659 88.97C114.399 86.1058 113.636 85.1599 115.72 83.7882C116.869 83.1991 118.69 83.1473 119.509 83.1473C119.231 85.8622 124.911 86.1963 125.052 83.1473C129.3 83.5475 131.267 83.6469 130.444 90.3272Z" fill="#EA394A"/>
<path d="M119.766 79.0434C120.235 79.2839 120.771 79.3599 121.288 79.2594C121.306 79.256 121.325 79.2578 121.342 79.2646C121.359 79.2714 121.373 79.283 121.384 79.2979C121.395 79.3128 121.401 79.3304 121.402 79.3488C121.403 79.3672 121.399 79.3854 121.39 79.4015C121.236 79.6752 120.87 80.1431 120.243 79.9525C119.837 79.8293 119.684 79.41 119.627 79.1498C119.623 79.1317 119.624 79.1129 119.631 79.0956C119.637 79.0782 119.648 79.063 119.663 79.0518C119.677 79.0406 119.695 79.0339 119.713 79.0324C119.731 79.0309 119.75 79.0347 119.766 79.0434Z" fill="white"/>
<path d="M119.736 76.9399C119.862 76.9399 119.963 76.8376 119.963 76.7114C119.963 76.5852 119.862 76.4829 119.736 76.4829C119.611 76.4829 119.51 76.5852 119.51 76.7114C119.51 76.8376 119.611 76.9399 119.736 76.9399Z" fill="#0C0C0C"/>
<path d="M121.917 77.3243C122.042 77.3243 122.143 77.222 122.143 77.0958C122.143 76.9696 122.042 76.8673 121.917 76.8673C121.791 76.8673 121.69 76.9696 121.69 77.0958C121.69 77.222 121.791 77.3243 121.917 77.3243Z" fill="#0C0C0C"/>
<path d="M115.161 93.9025H115.166C115.175 93.9012 115.183 93.8962 115.189 93.8888C115.194 93.8813 115.197 93.8719 115.196 93.8626L114.795 89.7925C114.794 89.7878 114.793 89.7833 114.79 89.7793C114.788 89.7752 114.785 89.7717 114.781 89.7689C114.778 89.7661 114.773 89.7641 114.769 89.7629C114.764 89.7618 114.76 89.7616 114.755 89.7624C114.751 89.763 114.746 89.7645 114.742 89.7668C114.738 89.7692 114.735 89.7723 114.732 89.776C114.729 89.7797 114.727 89.7839 114.726 89.7884C114.725 89.7929 114.725 89.7976 114.725 89.8021L115.126 93.8724C115.127 93.8809 115.132 93.8886 115.138 93.8941C115.145 93.8996 115.153 93.9026 115.161 93.9025Z" fill="#0C0C0C"/>
<path d="M114.637 90.8027H110.543V95.8604H114.637V90.8027Z" fill="white"/>
<path d="M112.961 93.3316C112.961 92.9976 113.059 92.6711 113.243 92.3934C113.428 92.1157 113.69 91.8993 113.996 91.7716C114.302 91.6438 114.639 91.6104 114.965 91.6757C115.29 91.7409 115.588 91.9018 115.823 92.138C116.057 92.3742 116.217 92.6751 116.282 93.0027C116.346 93.3304 116.313 93.6699 116.186 93.9785C116.059 94.2871 115.844 94.5508 115.569 94.7363C115.293 94.9219 114.969 95.0209 114.637 95.0209C114.193 95.0204 113.766 94.8422 113.452 94.5255C113.138 94.2088 112.961 93.7794 112.961 93.3316ZM113.647 93.3316C113.647 93.5288 113.705 93.7216 113.814 93.8856C113.923 94.0495 114.077 94.1773 114.258 94.2528C114.439 94.3283 114.638 94.348 114.83 94.3096C115.022 94.2711 115.199 94.1761 115.337 94.0367C115.475 93.8972 115.57 93.7196 115.608 93.5261C115.646 93.3327 115.626 93.1322 115.552 92.95C115.477 92.7679 115.35 92.6121 115.187 92.5026C115.024 92.393 114.833 92.3345 114.637 92.3345C114.375 92.3348 114.123 92.44 113.938 92.6269C113.752 92.8138 113.648 93.0673 113.647 93.3316Z" fill="white"/>
<path d="M114.605 93.9575C114.618 93.8719 114.662 93.794 114.727 93.7373C114.792 93.6806 114.875 93.6489 114.961 93.6475C114.958 93.6441 114.957 93.6402 114.956 93.636L114.834 93.6094C114.749 93.5925 114.672 93.5465 114.617 93.4792C114.562 93.412 114.531 93.3276 114.531 93.2403C114.532 93.1856 114.544 93.1317 114.568 93.0826C114.592 93.0335 114.627 92.9903 114.669 92.9562C114.712 92.9222 114.761 92.898 114.814 92.8856C114.867 92.8731 114.922 92.8727 114.975 92.8842L115.263 92.9467C115.263 92.9457 115.263 92.9447 115.263 92.9435C115.264 92.9412 115.264 92.9389 115.265 92.9368C115.191 92.9013 115.13 92.8413 115.093 92.7666C115.056 92.6918 115.046 92.6067 115.063 92.5252C115.095 92.3109 115.35 92.2404 115.537 92.2811L116.282 92.4154L116.03 92.2475C115.951 92.1921 115.895 92.1085 115.875 92.0135C115.854 91.9186 115.871 91.8193 115.92 91.7358C115.947 91.6935 115.982 91.6573 116.023 91.6293C116.065 91.6012 116.111 91.5819 116.16 91.5726C116.209 91.5633 116.26 91.5641 116.308 91.5751C116.357 91.586 116.403 91.6068 116.443 91.6362L119.446 95.0976L118.779 94.7929C118.572 95.0995 118.279 95.3368 117.937 95.4745C117.596 95.6121 117.221 95.6438 116.861 95.5655L115.233 95.208C115.148 95.1911 115.071 95.1451 115.016 95.0779C114.961 95.0106 114.93 94.9262 114.93 94.8389C114.931 94.7601 114.957 94.6839 115.005 94.6211C115.052 94.5584 115.118 94.5125 115.193 94.4902C115.19 94.4846 115.189 94.4786 115.19 94.4726C115.191 94.467 115.193 94.4617 115.197 94.4571C115.2 94.4526 115.205 94.4491 115.21 94.4468L114.909 94.3814C114.815 94.3628 114.731 94.3087 114.674 94.23C114.617 94.1513 114.593 94.0539 114.605 93.9575Z" fill="#E98862"/>
<path opacity="0.2" d="M115.807 93.0687C115.815 93.067 115.822 93.0626 115.827 93.0563C115.832 93.0499 115.834 93.0421 115.834 93.034C115.834 93.026 115.831 93.0182 115.826 93.0121C115.821 93.006 115.813 93.0019 115.806 93.0005L115.303 92.9147C115.298 92.9137 115.293 92.9137 115.289 92.9146C115.284 92.9155 115.28 92.9173 115.276 92.92C115.272 92.9226 115.269 92.926 115.266 92.9299C115.264 92.9339 115.262 92.9383 115.261 92.9429C115.261 92.9475 115.261 92.9522 115.262 92.9568C115.263 92.9613 115.265 92.9656 115.268 92.9694C115.27 92.9731 115.274 92.9763 115.278 92.9786C115.282 92.981 115.286 92.9825 115.291 92.9832L115.794 93.0689C115.798 93.0697 115.803 93.0696 115.807 93.0687Z" fill="#0C0C0C"/>
<path opacity="0.2" d="M115.685 93.7853C115.693 93.7837 115.7 93.7793 115.705 93.773C115.71 93.7667 115.713 93.7589 115.713 93.7508C115.713 93.7428 115.71 93.735 115.705 93.7289C115.699 93.7227 115.692 93.7186 115.684 93.7172L114.995 93.5941C114.991 93.593 114.986 93.5929 114.981 93.5937C114.977 93.5946 114.972 93.5963 114.969 93.5989C114.965 93.6015 114.961 93.6049 114.959 93.6088C114.956 93.6128 114.954 93.6172 114.954 93.6218C114.953 93.6265 114.953 93.6312 114.954 93.6358C114.955 93.6404 114.957 93.6447 114.96 93.6485C114.963 93.6523 114.966 93.6555 114.97 93.6579C114.974 93.6603 114.979 93.6618 114.983 93.6624L115.672 93.7856C115.677 93.7864 115.681 93.7863 115.685 93.7853Z" fill="#0C0C0C"/>
<path opacity="0.2" d="M115.559 94.5624C115.567 94.5607 115.574 94.5562 115.579 94.5499C115.584 94.5435 115.586 94.5355 115.586 94.5274C115.586 94.5193 115.583 94.5115 115.578 94.5054C115.572 94.4993 115.565 94.4953 115.557 94.494L115.23 94.4437C115.221 94.4428 115.213 94.4454 115.206 94.4509C115.199 94.4563 115.194 94.4642 115.193 94.473C115.191 94.4818 115.193 94.4907 115.198 94.498C115.204 94.5053 115.211 94.5104 115.22 94.5123L115.547 94.5628C115.551 94.5634 115.555 94.5633 115.559 94.5624Z" fill="#0C0C0C"/>
<path d="M132.53 93.5296C130.688 96.1982 128.041 98.1973 124.981 99.23L124.98 99.2288C124.301 99.0949 117.818 96.5165 116.961 96.3472L117.899 91.9379C120.308 92.4208 124.702 94.2825 127.125 94.7672L125.416 86.96C125.354 86.6152 125.36 86.2614 125.435 85.9191C125.51 85.5769 125.651 85.253 125.851 84.9663C126.052 84.6796 126.306 84.4357 126.6 84.2488C126.895 84.0619 127.223 83.9358 127.566 83.8777C127.909 83.8195 128.26 83.8306 128.599 83.9102C128.938 83.9898 129.257 84.1364 129.54 84.3414C129.822 84.5464 130.061 84.8058 130.243 85.1046C130.424 85.4033 130.546 85.7355 130.599 86.0818L132.53 93.5296Z" fill="#EA394A"/>
<path d="M128.961 95.3419C128.97 95.3418 128.978 95.3383 128.985 95.3323C128.991 95.3262 128.995 95.318 128.996 95.3092C128.996 95.3004 128.994 95.2917 128.988 95.2848C128.983 95.2779 128.975 95.2732 128.967 95.2717L127.145 94.6492C127.14 94.6484 127.136 94.6486 127.131 94.6497C127.127 94.6508 127.122 94.6528 127.119 94.6555C127.115 94.6583 127.112 94.6618 127.11 94.6658C127.107 94.6698 127.106 94.6742 127.105 94.6789C127.104 94.6881 127.106 94.6975 127.112 94.705C127.117 94.7125 127.125 94.7175 127.134 94.7189L128.956 95.3414C128.958 95.3418 128.96 95.342 128.961 95.3419Z" fill="#0C0C0C"/>
<path d="M127.173 94.679C127.174 94.69 127.17 94.701 127.163 94.7096C127.159 94.7134 127.155 94.7163 127.149 94.7179C127.144 94.7195 127.139 94.7199 127.133 94.719L117.957 91.9908L117.038 96.3305L124.939 99.2427C124.915 99.251 124.889 99.2591 124.864 99.2674C124.847 99.2734 124.829 99.2792 124.811 99.2839L116.986 96.3899C116.978 96.3875 116.97 96.3818 116.965 96.3739C116.96 96.366 116.959 96.3566 116.961 96.3476L117.899 91.9383C117.9 91.9338 117.902 91.9296 117.905 91.926C117.908 91.9223 117.911 91.9193 117.915 91.9171C117.919 91.9144 117.924 91.9125 117.928 91.9117C117.933 91.9109 117.938 91.9112 117.942 91.9124L127.096 94.6441L126.06 90.3401C126.058 90.3309 126.061 90.3216 126.066 90.3141C126.072 90.3067 126.08 90.3017 126.089 90.3002C126.093 90.2993 126.098 90.2993 126.102 90.3002C126.107 90.3012 126.111 90.303 126.115 90.3056C126.119 90.3082 126.122 90.3116 126.125 90.3155C126.127 90.3194 126.129 90.3238 126.13 90.3283L127.173 94.679Z" fill="#0C0C0C"/>
<path d="M7.5219 89.0547C7.51336 89.0547 7.50491 89.053 7.49703 89.0497C7.48927 89.0464 7.48222 89.0416 7.4763 89.0356C7.47038 89.0295 7.46569 89.0224 7.46251 89.0145C7.45933 89.0067 7.45772 88.9983 7.45777 88.9898C7.45782 88.9813 7.45953 88.9729 7.4628 88.9651L9.97501 82.9498C9.98163 82.9341 9.9942 82.9216 10.01 82.9151C10.0257 82.9087 10.0434 82.9088 10.0591 82.9154C10.0747 82.9221 10.0871 82.9347 10.0935 82.9506C10.1 82.9665 10.0998 82.9843 10.0932 83.0001L7.58101 89.0151C7.57613 89.0268 7.56792 89.0368 7.5574 89.0439C7.54689 89.0509 7.53454 89.0547 7.5219 89.0547Z" fill="#0C0C0C"/>
<path d="M22.3047 89.123H22.3018C22.2934 89.1234 22.285 89.1221 22.2771 89.1192C22.2692 89.1163 22.2619 89.1119 22.2557 89.1062C22.2495 89.1005 22.2445 89.0936 22.2409 89.0859C22.2373 89.0782 22.2353 89.0699 22.2349 89.0614L21.9549 82.9092C21.9547 82.8922 21.9609 82.8758 21.9722 82.8633C21.9835 82.8507 21.9992 82.843 22.0159 82.8416C22.0244 82.8412 22.0328 82.8425 22.0407 82.8454C22.0486 82.8483 22.0559 82.8527 22.0621 82.8584C22.0684 82.8641 22.0734 82.871 22.077 82.8787C22.0806 82.8864 22.0826 82.8947 22.083 82.9032L22.363 89.0555C22.3638 89.0722 22.3582 89.0885 22.3473 89.1011C22.3365 89.1137 22.3212 89.1216 22.3047 89.123Z" fill="#0C0C0C"/>
</svg>
