<svg width="30" height="30" viewBox="0 0 30 30" fill="none" xmlns="http://www.w3.org/2000/svg">
<path fill-rule="evenodd" clip-rule="evenodd" d="M7.77852 22.5003H22.2215C24.507 22.5003 25.8116 20.2014 24.4403 18.5905C23.8332 17.8773 23.4591 17.0314 23.3584 16.1444L23.1533 14.3375C22.939 14.3623 22.7209 14.375 22.4999 14.375C19.3933 14.375 16.8749 11.8566 16.8749 8.75C16.8749 7.53641 17.2592 6.41259 17.9128 5.49359C17.8878 5.48475 17.8626 5.47601 17.8374 5.46738V5.33774C17.8374 3.77067 16.5671 2.50031 15 2.50031C13.4329 2.50031 12.1626 3.77067 12.1626 5.33774V5.46738C9.48457 6.3843 7.50199 8.5636 7.20058 11.2193L6.6416 16.1444C6.54092 17.0314 6.1668 17.8773 5.55973 18.5905C4.18845 20.2014 5.49304 22.5003 7.77852 22.5003ZM26.25 8.75C26.25 10.8211 24.5711 12.5 22.5 12.5C20.4289 12.5 18.75 10.8211 18.75 8.75C18.75 6.67893 20.4289 5 22.5 5C24.5711 5 26.25 6.67893 26.25 8.75ZM15 27.5003C16.6957 27.5003 18.1434 26.4993 18.7151 25.0897C18.739 25.0309 18.75 24.9678 18.75 24.9044C18.75 24.612 18.513 24.375 18.2206 24.375H11.7794C11.487 24.375 11.25 24.612 11.25 24.9044C11.25 24.9678 11.261 25.0309 11.2849 25.0897C11.8566 26.4993 13.3044 27.5003 15 27.5003Z" fill="black" fill-opacity="0.87"/>
</svg>
