<svg width="104" height="128" viewBox="0 0 104 128" fill="none" xmlns="http://www.w3.org/2000/svg">
<g clip-path="url(#clip0_16_960)">
<path d="M98.7544 0.162567H14.0488C11.24 0.162567 8.96295 2.48242 8.96295 5.34409V73.2557C8.96295 76.1174 11.24 78.4373 14.0488 78.4373H98.7544C101.563 78.4373 103.84 76.1174 103.84 73.2557V5.34409C103.84 2.48242 101.563 0.162567 98.7544 0.162567Z" fill="white"/>
<path d="M98.7544 78.6H14.0488C12.6581 78.5984 11.3246 78.0349 10.3412 77.0329C9.35776 76.031 8.8046 74.6725 8.8031 73.2556V5.34438C8.8046 3.92743 9.35776 2.56896 10.3412 1.56703C11.3246 0.565092 12.6581 0.00153254 14.0488 0L98.7544 0C100.145 0.00157175 101.479 0.565144 102.462 1.56707C103.445 2.56899 103.999 3.92745 104 5.34438V73.2557C103.999 74.6726 103.445 76.0311 102.462 77.0329C101.479 78.0348 100.145 78.5984 98.7544 78.6ZM14.0488 0.325265C12.7427 0.326797 11.4906 0.856092 10.567 1.79703C9.64346 2.73797 9.12397 4.01371 9.12251 5.34438V73.2557C9.12401 74.5864 9.64352 75.8621 10.5671 76.803C11.4906 77.7439 12.7428 78.2732 14.0488 78.2747H98.7544C100.061 78.2732 101.313 77.7439 102.236 76.803C103.16 75.8621 103.679 74.5864 103.681 73.2557V5.34438C103.679 4.0137 103.16 2.73794 102.236 1.79699C101.313 0.856041 100.061 0.326758 98.7544 0.325265H14.0488Z" fill="#292A2E"/>
<path opacity="0.2" d="M96.4043 14.2342H91.2033C90.107 14.2342 89.2184 15.1396 89.2184 16.2564V21.5552C89.2184 22.6721 90.107 23.5775 91.2033 23.5775H96.4043C97.5005 23.5775 98.3892 22.6721 98.3892 21.5552V16.2564C98.3892 15.1396 97.5005 14.2342 96.4043 14.2342Z" fill="#367CFF"/>
<path opacity="0.2" d="M96.5658 26.0359H91.4047C90.2974 26.0359 89.3998 26.9504 89.3998 28.0785V33.3366C89.3998 34.4647 90.2974 35.3792 91.4047 35.3792H96.5658C97.673 35.3792 98.5707 34.4647 98.5707 33.3366V28.0785C98.5707 26.9504 97.673 26.0359 96.5658 26.0359Z" fill="#367CFF"/>
<path opacity="0.2" d="M96.5658 39.1801H91.4047C90.2974 39.1801 89.3998 40.0946 89.3998 41.2227V46.4808C89.3998 47.6089 90.2974 48.5234 91.4047 48.5234H96.5658C97.673 48.5234 98.5707 47.6089 98.5707 46.4808V41.2227C98.5707 40.0946 97.673 39.1801 96.5658 39.1801Z" fill="#367CFF"/>
<path opacity="0.2" d="M96.3843 51.6518H91.2233C90.116 51.6518 89.2184 52.5663 89.2184 53.6944V58.9525C89.2184 60.0806 90.116 60.9951 91.2233 60.9951H96.3843C97.4916 60.9951 98.3892 60.0806 98.3892 58.9525V53.6944C98.3892 52.5663 97.4916 51.6518 96.3843 51.6518Z" fill="#367CFF"/>
<g opacity="0.15">
<path d="M59.008 14.2342H53.807C52.7107 14.2342 51.822 15.1396 51.822 16.2564V21.5552C51.822 22.6721 52.7107 23.5775 53.807 23.5775H59.008C60.1042 23.5775 60.9929 22.6721 60.9929 21.5552V16.2564C60.9929 15.1396 60.1042 14.2342 59.008 14.2342Z" fill="#367CFF"/>
<path d="M46.5425 14.2342H41.3415C40.2452 14.2342 39.3565 15.1396 39.3565 16.2564V21.5552C39.3565 22.6721 40.2452 23.5775 41.3415 23.5775H46.5425C47.6387 23.5775 48.5274 22.6721 48.5274 21.5552V16.2564C48.5274 15.1396 47.6387 14.2342 46.5425 14.2342Z" fill="#367CFF"/>
<path d="M34.2584 14.2342H29.0574C27.9611 14.2342 27.0724 15.1396 27.0724 16.2564V21.5552C27.0724 22.6721 27.9611 23.5775 29.0574 23.5775H34.2584C35.3546 23.5775 36.2433 22.6721 36.2433 21.5552V16.2564C36.2433 15.1396 35.3546 14.2342 34.2584 14.2342Z" fill="#367CFF"/>
<path d="M21.7929 14.2342H16.5919C15.4956 14.2342 14.607 15.1396 14.607 16.2564V21.5552C14.607 22.6721 15.4956 23.5775 16.5919 23.5775H21.7929C22.8892 23.5775 23.7778 22.6721 23.7778 21.5552V16.2564C23.7778 15.1396 22.8892 14.2342 21.7929 14.2342Z" fill="#367CFF"/>
<path d="M71.4733 14.2342H66.2723C65.1761 14.2342 64.2874 15.1396 64.2874 16.2564V21.5552C64.2874 22.6721 65.1761 23.5775 66.2723 23.5775H71.4733C72.5696 23.5775 73.4583 22.6721 73.4583 21.5552V16.2564C73.4583 15.1396 72.5696 14.2342 71.4733 14.2342Z" fill="#367CFF"/>
<path d="M83.9388 14.2342H78.7378C77.6416 14.2342 76.7529 15.1396 76.7529 16.2564V21.5552C76.7529 22.6721 77.6416 23.5775 78.7378 23.5775H83.9388C85.0351 23.5775 85.9237 22.6721 85.9237 21.5552V16.2564C85.9237 15.1396 85.0351 14.2342 83.9388 14.2342Z" fill="#367CFF"/>
<path d="M59.1693 26.0359H54.0082C52.9009 26.0359 52.0033 26.9504 52.0033 28.0785V33.3366C52.0033 34.4647 52.9009 35.3792 54.0082 35.3792H59.1693C60.2766 35.3792 61.1742 34.4647 61.1742 33.3366V28.0785C61.1742 26.9504 60.2766 26.0359 59.1693 26.0359Z" fill="#367CFF"/>
<path d="M71.6348 26.0359H66.4737C65.3664 26.0359 64.4688 26.9504 64.4688 28.0785V33.3366C64.4688 34.4647 65.3664 35.3792 66.4737 35.3792H71.6348C72.7421 35.3792 73.6397 34.4647 73.6397 33.3366V28.0785C73.6397 26.9504 72.7421 26.0359 71.6348 26.0359Z" fill="#367CFF"/>
<path d="M84.1003 26.0359H78.9392C77.8319 26.0359 76.9343 26.9504 76.9343 28.0785V33.3366C76.9343 34.4647 77.8319 35.3792 78.9392 35.3792H84.1003C85.2076 35.3792 86.1052 34.4647 86.1052 33.3366V28.0785C86.1052 26.9504 85.2076 26.0359 84.1003 26.0359Z" fill="#367CFF"/>
<path d="M21.7729 26.0359H16.6119C15.5046 26.0359 14.607 26.9504 14.607 28.0785V33.3366C14.607 34.4647 15.5046 35.3792 16.6119 35.3792H21.7729C22.8802 35.3792 23.7778 34.4647 23.7778 33.3366V28.0785C23.7778 26.9504 22.8802 26.0359 21.7729 26.0359Z" fill="#367CFF"/>
<path d="M34.2384 26.0359H29.0773C27.9701 26.0359 27.0724 26.9504 27.0724 28.0785V33.3366C27.0724 34.4647 27.9701 35.3792 29.0773 35.3792H34.2384C35.3457 35.3792 36.2433 34.4647 36.2433 33.3366V28.0785C36.2433 26.9504 35.3457 26.0359 34.2384 26.0359Z" fill="#367CFF"/>
<path d="M46.7038 26.0359H41.5427C40.4354 26.0359 39.5378 26.9504 39.5378 28.0785V33.3366C39.5378 34.4647 40.4354 35.3792 41.5427 35.3792H46.7038C47.8111 35.3792 48.7087 34.4647 48.7087 33.3366V28.0785C48.7087 26.9504 47.8111 26.0359 46.7038 26.0359Z" fill="#367CFF"/>
<path d="M59.1693 39.1801H54.0082C52.9009 39.1801 52.0033 40.0946 52.0033 41.2227V46.4808C52.0033 47.6089 52.9009 48.5234 54.0082 48.5234H59.1693C60.2766 48.5234 61.1742 47.6089 61.1742 46.4808V41.2227C61.1742 40.0946 60.2766 39.1801 59.1693 39.1801Z" fill="#367CFF"/>
<path d="M71.6348 39.1801H66.4737C65.3664 39.1801 64.4688 40.0946 64.4688 41.2227V46.4808C64.4688 47.6089 65.3664 48.5234 66.4737 48.5234H71.6348C72.7421 48.5234 73.6397 47.6089 73.6397 46.4808V41.2227C73.6397 40.0946 72.7421 39.1801 71.6348 39.1801Z" fill="#367CFF"/>
<path d="M84.1003 39.1801H78.9392C77.8319 39.1801 76.9343 40.0946 76.9343 41.2227V46.4808C76.9343 47.6089 77.8319 48.5234 78.9392 48.5234H84.1003C85.2076 48.5234 86.1052 47.6089 86.1052 46.4808V41.2227C86.1052 40.0946 85.2076 39.1801 84.1003 39.1801Z" fill="#367CFF"/>
<path d="M21.7729 39.1801H16.6119C15.5046 39.1801 14.607 40.0946 14.607 41.2227V46.4808C14.607 47.6089 15.5046 48.5234 16.6119 48.5234H21.7729C22.8802 48.5234 23.7778 47.6089 23.7778 46.4808V41.2227C23.7778 40.0946 22.8802 39.1801 21.7729 39.1801Z" fill="#367CFF"/>
<path d="M34.2384 39.1801H29.0773C27.9701 39.1801 27.0724 40.0946 27.0724 41.2227V46.4808C27.0724 47.6089 27.9701 48.5234 29.0773 48.5234H34.2384C35.3457 48.5234 36.2433 47.6089 36.2433 46.4808V41.2227C36.2433 40.0946 35.3457 39.1801 34.2384 39.1801Z" fill="#367CFF"/>
<path d="M46.7038 39.1801H41.5427C40.4354 39.1801 39.5378 40.0946 39.5378 41.2227V46.4808C39.5378 47.6089 40.4354 48.5234 41.5427 48.5234H46.7038C47.8111 48.5234 48.7087 47.6089 48.7087 46.4808V41.2227C48.7087 40.0946 47.8111 39.1801 46.7038 39.1801Z" fill="#367CFF"/>
<path d="M59.1693 51.8365H54.0082C52.9009 51.8365 52.0033 52.751 52.0033 53.8791V59.1372C52.0033 60.2653 52.9009 61.1798 54.0082 61.1798H59.1693C60.2766 61.1798 61.1742 60.2653 61.1742 59.1372V53.8791C61.1742 52.751 60.2766 51.8365 59.1693 51.8365Z" fill="#367CFF"/>
<path d="M71.4534 51.6518H66.2923C65.185 51.6518 64.2874 52.5663 64.2874 53.6944V58.9525C64.2874 60.0806 65.185 60.9951 66.2923 60.9951H71.4534C72.5606 60.9951 73.4583 60.0806 73.4583 58.9525V53.6944C73.4583 52.5663 72.5606 51.6518 71.4534 51.6518Z" fill="#367CFF"/>
<path d="M83.9188 51.6518H78.7578C77.6505 51.6518 76.7529 52.5663 76.7529 53.6944V58.9525C76.7529 60.0806 77.6505 60.9951 78.7578 60.9951H83.9188C85.0261 60.9951 85.9237 60.0806 85.9237 58.9525V53.6944C85.9237 52.5663 85.0261 51.6518 83.9188 51.6518Z" fill="#367CFF"/>
<path d="M21.7729 51.8365H16.6119C15.5046 51.8365 14.607 52.751 14.607 53.8791V59.1372C14.607 60.2653 15.5046 61.1798 16.6119 61.1798H21.7729C22.8802 61.1798 23.7778 60.2653 23.7778 59.1372V53.8791C23.7778 52.751 22.8802 51.8365 21.7729 51.8365Z" fill="#367CFF"/>
<path d="M34.2384 51.8365H29.0773C27.9701 51.8365 27.0724 52.751 27.0724 53.8791V59.1372C27.0724 60.2653 27.9701 61.1798 29.0773 61.1798H34.2384C35.3457 61.1798 36.2433 60.2653 36.2433 59.1372V53.8791C36.2433 52.751 35.3457 51.8365 34.2384 51.8365Z" fill="#367CFF"/>
<path d="M46.7038 51.8365H41.5427C40.4354 51.8365 39.5378 52.751 39.5378 53.8791V59.1372C39.5378 60.2653 40.4354 61.1798 41.5427 61.1798H46.7038C47.8111 61.1798 48.7087 60.2653 48.7087 59.1372V53.8791C48.7087 52.751 47.8111 51.8365 46.7038 51.8365Z" fill="#367CFF"/>
<path d="M58.988 63.3003H53.8269C52.7196 63.3003 51.822 64.2148 51.822 65.3429V70.6011C51.822 71.7291 52.7196 72.6437 53.8269 72.6437H58.988C60.0953 72.6437 60.9929 71.7291 60.9929 70.6011V65.3429C60.9929 64.2148 60.0953 63.3003 58.988 63.3003Z" fill="#367CFF"/>
<path d="M21.5915 63.3003H16.4304C15.3232 63.3003 14.4255 64.2148 14.4255 65.3429V70.6011C14.4255 71.7291 15.3232 72.6437 16.4304 72.6437H21.5915C22.6988 72.6437 23.5964 71.7291 23.5964 70.6011V65.3429C23.5964 64.2148 22.6988 63.3003 21.5915 63.3003Z" fill="#367CFF"/>
<path d="M34.057 63.3003H28.8959C27.7886 63.3003 26.891 64.2148 26.891 65.3429V70.6011C26.891 71.7291 27.7886 72.6437 28.8959 72.6437H34.057C35.1643 72.6437 36.0619 71.7291 36.0619 70.6011V65.3429C36.0619 64.2148 35.1643 63.3003 34.057 63.3003Z" fill="#367CFF"/>
<path d="M46.5225 63.3003H41.3614C40.2542 63.3003 39.3565 64.2148 39.3565 65.3429V70.6011C39.3565 71.7291 40.2542 72.6437 41.3614 72.6437H46.5225C47.6298 72.6437 48.5274 71.7291 48.5274 70.6011V65.3429C48.5274 64.2148 47.6298 63.3003 46.5225 63.3003Z" fill="#367CFF"/>
</g>
<path d="M103.84 5.34437V8.66635H8.96338V5.34437C8.96319 4.66386 9.09459 3.98997 9.35007 3.3612C9.60555 2.73243 9.98011 2.1611 10.4524 1.67983C10.9246 1.19857 11.4853 0.816799 12.1024 0.556332C12.7195 0.295866 13.3809 0.161804 14.0488 0.161804H98.7545C99.4225 0.161882 100.084 0.295995 100.701 0.556486C101.318 0.816976 101.879 1.19874 102.351 1.67999C102.823 2.16123 103.198 2.73253 103.453 3.36127C103.709 3.99001 103.84 4.66386 103.84 5.34437Z" fill="#292A2E"/>
<path d="M46.4068 64.3339H41.4771C40.8662 64.3339 40.371 64.8384 40.371 65.4608V70.4832C40.371 71.1056 40.8662 71.6101 41.4771 71.6101H46.4068C47.0177 71.6101 47.5129 71.1056 47.5129 70.4832V65.4608C47.5129 64.8384 47.0177 64.3339 46.4068 64.3339Z" fill="white"/>
<path d="M21.2327 48.9815L15.1465 47.8595C14.974 47.8277 14.821 47.7274 14.7211 47.5806C14.6212 47.4338 14.5826 47.2526 14.6138 47.0769L15.5549 41.7784L17.4283 40.5076L22.5695 41.4556C22.742 41.4874 22.8951 41.5877 22.995 41.7345C23.0949 41.8812 23.1335 42.0624 23.1023 42.2381L22.0008 48.4388C21.9854 48.5258 21.9533 48.6089 21.9063 48.6833C21.8593 48.7577 21.7985 48.8219 21.7271 48.8723C21.6558 48.9227 21.5754 48.9583 21.4906 48.977C21.4058 48.9958 21.3182 48.9973 21.2327 48.9815Z" fill="#367CFF"/>
<path opacity="0.29" d="M17.4282 40.5076L15.5549 41.7784L17.1547 42.1015L17.4282 40.5076Z" fill="#FFFFFA"/>
<g opacity="0.88">
<path d="M21.7085 45.3662C21.7024 45.3664 21.6962 45.3659 21.6901 45.3647L15.995 44.2917C15.971 44.2872 15.9496 44.2731 15.9358 44.2526C15.9219 44.232 15.9166 44.2067 15.9211 44.1822C15.9255 44.1577 15.9393 44.136 15.9595 44.1219C15.9796 44.1077 16.0045 44.1024 16.0285 44.1069L21.7237 45.1799C21.7461 45.1842 21.7661 45.1967 21.78 45.2152C21.7938 45.2336 21.8005 45.2566 21.7986 45.2798C21.7968 45.3029 21.7867 45.3245 21.7702 45.3405C21.7536 45.3565 21.7319 45.3656 21.7091 45.3662H21.7085Z" fill="white"/>
<path d="M21.5044 46.5833C21.4982 46.5833 21.492 46.5829 21.4859 46.5818L15.7909 45.5087C15.7786 45.5069 15.7667 45.5026 15.7561 45.496C15.7455 45.4894 15.7363 45.4807 15.729 45.4705C15.7218 45.4602 15.7167 45.4485 15.714 45.4361C15.7112 45.4238 15.711 45.411 15.7133 45.3985C15.7155 45.3861 15.7202 45.3742 15.7271 45.3636C15.734 45.3531 15.7428 45.344 15.7532 45.337C15.7636 45.3301 15.7752 45.3253 15.7875 45.323C15.7997 45.3207 15.8123 45.321 15.8244 45.3238L21.5194 46.3968C21.5419 46.4009 21.5622 46.4134 21.5762 46.4319C21.5901 46.4504 21.5969 46.4735 21.5951 46.4968C21.5933 46.52 21.583 46.5418 21.5663 46.5578C21.5496 46.5737 21.5277 46.5828 21.5048 46.5833H21.5044Z" fill="white"/>
<path d="M18.163 47.0784C18.1568 47.0785 18.1507 47.078 18.1446 47.0769L15.6185 46.6009C15.6062 46.5991 15.5944 46.5948 15.5837 46.5882C15.5731 46.5816 15.5639 46.5729 15.5567 46.5626C15.5494 46.5523 15.5443 46.5407 15.5416 46.5283C15.5388 46.5159 15.5386 46.5031 15.5409 46.4907C15.5431 46.4782 15.5478 46.4664 15.5547 46.4558C15.5616 46.4452 15.5704 46.4362 15.5808 46.4292C15.5912 46.4222 15.6028 46.4175 15.6151 46.4152C15.6273 46.4129 15.6399 46.4132 15.652 46.4159L18.1781 46.892C18.2005 46.8963 18.2206 46.9089 18.2344 46.9273C18.2483 46.9457 18.2549 46.9687 18.2531 46.9919C18.2513 47.015 18.2411 47.0367 18.2246 47.0526C18.2081 47.0686 18.1863 47.0778 18.1635 47.0784H18.163Z" fill="white"/>
</g>
<path d="M21.7356 44.3772C21.7131 44.3772 21.6906 44.3751 21.6684 44.371L20.4361 44.1421C20.3875 44.133 20.3411 44.1143 20.2997 44.087C20.2582 44.0597 20.2224 44.0242 20.1944 43.9828C20.1664 43.9413 20.1467 43.8946 20.1365 43.8453C20.1263 43.7961 20.1257 43.7453 20.1348 43.6958L20.3419 42.3627C20.3598 42.2638 20.4152 42.1761 20.496 42.1184C20.5768 42.0607 20.6767 42.0377 20.774 42.0543L22.0101 42.2696C22.0592 42.278 22.1061 42.2963 22.1481 42.3234C22.1901 42.3505 22.2264 42.3859 22.2549 42.4274C22.2834 42.4689 22.3035 42.5158 22.314 42.5654C22.3245 42.6149 22.3252 42.666 22.3161 42.7159L22.1053 44.0637C22.0892 44.1516 22.0434 44.2311 21.9759 44.2883C21.9084 44.3456 21.8234 44.377 21.7356 44.3772ZM20.7112 42.1973C20.6577 42.1975 20.6059 42.2166 20.5647 42.2513C20.5235 42.2861 20.4955 42.3344 20.4854 42.3879L20.2783 43.721C20.2725 43.7514 20.2726 43.7827 20.2787 43.813C20.2848 43.8434 20.2968 43.8722 20.3139 43.8978C20.331 43.9233 20.353 43.9452 20.3785 43.9621C20.4039 43.979 20.4325 43.9906 20.4624 43.9961L21.6947 44.225C21.7543 44.2357 21.8156 44.2221 21.8654 44.1872C21.9153 44.1523 21.9496 44.0988 21.9612 44.0383L22.1723 42.6894C22.1779 42.6589 22.1776 42.6276 22.1712 42.5973C22.1648 42.567 22.1526 42.5382 22.1352 42.5128C22.1178 42.4873 22.0956 42.4656 22.0699 42.449C22.0442 42.4323 22.0155 42.4211 21.9855 42.4158L20.7494 42.2006C20.7368 42.1984 20.724 42.1973 20.7112 42.1973Z" fill="white"/>
<path d="M42.476 70.3736C42.4631 70.3736 42.4502 70.3736 42.4372 70.3717C42.3779 70.3662 42.3204 70.3482 42.2682 70.3188C42.2161 70.2894 42.1706 70.2493 42.1346 70.201L40.8399 68.4661C40.7711 68.3739 40.741 68.2575 40.7564 68.1427C40.7717 68.0279 40.8312 67.924 40.9218 67.8539C41.0123 67.7838 41.1265 67.7532 41.2392 67.7688C41.3519 67.7845 41.4539 67.8451 41.5227 67.9373L42.5334 69.2917L46.4123 65.6842C46.4539 65.6455 46.5026 65.6156 46.5556 65.5961C46.6085 65.5766 46.6647 65.5679 46.721 65.5705C46.7773 65.5731 46.8325 65.587 46.8835 65.6113C46.9345 65.6357 46.9802 65.67 47.0182 65.7124C47.0562 65.7548 47.0856 65.8044 47.1047 65.8583C47.1239 65.9123 47.1324 65.9696 47.1298 66.0269C47.1273 66.0842 47.1136 66.1405 47.0897 66.1924C47.0658 66.2444 47.0321 66.291 46.9905 66.3297L42.7648 70.2589C42.6859 70.3325 42.5829 70.3734 42.476 70.3736Z" fill="#367CFF"/>
<path d="M98.8669 20.318L93.7366 23.8377C93.6646 23.8873 93.5837 23.9218 93.4985 23.9394C93.4134 23.9571 93.3257 23.9574 93.2404 23.9405C93.1551 23.9235 93.074 23.8896 93.0016 23.8407C92.9292 23.7917 92.867 23.7287 92.8186 23.6553L89.8664 19.1892L90.3392 16.9475L94.6735 13.9741C94.7455 13.9246 94.8264 13.8901 94.9115 13.8725C94.9967 13.8549 95.0844 13.8546 95.1696 13.8715C95.2549 13.8884 95.336 13.9223 95.4084 13.9712C95.4808 14.0202 95.543 14.0831 95.5915 14.1565L99.0463 19.3832C99.0948 19.4566 99.1286 19.539 99.1458 19.6256C99.163 19.7123 99.1633 19.8016 99.1467 19.8885C99.13 19.9753 99.0967 20.0579 99.0487 20.1316C99.0007 20.2053 98.9389 20.2686 98.8669 20.318Z" fill="#0CBC8B"/>
<path opacity="0.29" d="M90.3398 16.9473L89.8669 19.1891L91.2348 18.2842L90.3398 16.9473Z" fill="#FFFFFA"/>
<g opacity="0.88">
<path d="M96.7333 17.3887C96.7289 17.3932 96.724 17.3972 96.7188 17.4007L91.9026 20.6777C91.8822 20.69 91.858 20.6939 91.8349 20.6886C91.8119 20.6832 91.7917 20.6691 91.7786 20.649C91.7655 20.6289 91.7604 20.6045 91.7645 20.5807C91.7686 20.5569 91.7815 20.5357 91.8006 20.5214L96.6169 17.2444C96.6359 17.2316 96.6589 17.2265 96.6814 17.2299C96.7039 17.2334 96.7244 17.2452 96.7389 17.2631C96.7533 17.281 96.7608 17.3038 96.7598 17.327C96.7588 17.3501 96.7494 17.3721 96.7335 17.3887H96.7333Z" fill="white"/>
<path d="M97.4199 18.406C97.4155 18.4105 97.4106 18.4146 97.4054 18.4181L92.589 21.6951C92.5687 21.7074 92.5445 21.7113 92.5214 21.706C92.4983 21.7006 92.4781 21.6864 92.465 21.6663C92.4519 21.6463 92.4469 21.6218 92.451 21.5981C92.4551 21.5743 92.468 21.5531 92.487 21.5387L97.3034 18.2617C97.3224 18.249 97.3454 18.2438 97.3679 18.2473C97.3904 18.2508 97.4109 18.2626 97.4253 18.2805C97.4398 18.2984 97.4473 18.3211 97.4463 18.3443C97.4453 18.3675 97.4359 18.3895 97.4199 18.406Z" fill="white"/>
<path d="M95.364 21.1348C95.3596 21.1393 95.3547 21.1433 95.3495 21.1468L93.214 22.6003C93.204 22.6079 93.1925 22.6133 93.1803 22.6162C93.1682 22.6191 93.1555 22.6195 93.1432 22.6173C93.1309 22.6151 93.1192 22.6104 93.1087 22.6034C93.0983 22.5964 93.0893 22.5874 93.0824 22.5768C93.0755 22.5662 93.0707 22.5542 93.0685 22.5417C93.0662 22.5292 93.0665 22.5163 93.0693 22.5039C93.072 22.4915 93.0772 22.4798 93.0846 22.4695C93.0919 22.4592 93.1013 22.4505 93.112 22.444L95.2483 20.9905C95.2674 20.9777 95.2903 20.9726 95.3128 20.976C95.3354 20.9795 95.3558 20.9913 95.3703 21.0092C95.3848 21.0272 95.3922 21.0499 95.3912 21.0731C95.3902 21.0962 95.3809 21.1182 95.3649 21.1348H95.364Z" fill="white"/>
</g>
<path d="M100.042 128H5.266C5.23895 128 5.21301 127.989 5.19388 127.97C5.17475 127.95 5.164 127.924 5.164 127.896C5.164 127.869 5.17475 127.842 5.19388 127.823C5.21301 127.803 5.23895 127.792 5.266 127.792H100.042C100.069 127.792 100.095 127.803 100.114 127.823C100.133 127.842 100.144 127.869 100.144 127.896C100.144 127.924 100.133 127.95 100.114 127.97C100.095 127.989 100.069 128 100.042 128Z" fill="#292A2E"/>
<path d="M82.7747 121.443C82.7747 121.443 82.1168 124.916 78.9236 125.111C75.7304 125.305 76.423 127.896 76.423 127.896H88.625V121.685L82.7747 121.443Z" fill="white"/>
<path d="M86.5384 58.0625C86.5384 58.0625 86.5001 57.0182 86.5081 59.3873C86.5384 68.2247 86.9803 78.3191 87.3481 84.2261C87.9391 93.7219 89.1631 123.66 89.1631 123.66L80.5623 123.591L73.3742 57.7036L86.5384 58.0625Z" fill="black"/>
<path d="M77.3126 68.6C77.3126 68.6 76.9804 75.0133 76.9192 76.5189C76.7766 80.0009 76.649 83.6287 76.649 87.7161L75.4632 76.9781C75.4632 76.9781 76.3877 73.6199 77.3126 68.6Z" fill="#0A0A0A"/>
<path d="M67.0436 121.443C67.0436 121.443 66.3857 124.916 63.1926 125.111C59.9996 125.305 60.692 127.896 60.692 127.896H72.894V121.685L67.0436 121.443Z" fill="white"/>
<path d="M64.6179 58.7488C64.6179 58.7488 63.7619 89.2498 63.8661 90.7261L65.0993 123.431L73.8593 123.579L74.5479 89.2363C74.5479 89.2363 74.6528 79.7625 76.8996 70.9654C78.0491 66.4504 78.7409 61.8272 78.9641 57.1684L64.6179 58.7488Z" fill="black"/>
<path d="M86.6254 58.0616L86.6516 58.0631C86.6516 58.0631 86.6327 57.548 86.6254 58.0616Z" fill="#333333"/>
<path d="M69.9785 32.0795C70.0046 32.0761 70.293 36.9524 75.8533 36.5272C79.7027 36.2334 81.0759 32.0725 81.1634 32.0725C80.7484 31.9835 80.0495 31.8521 79.8652 31.7519C79.259 31.4201 78.3956 31.0748 78.2002 29.8755C78.0877 29.1843 78.2788 25.6483 78.2199 24.9489L72.4245 26.2926C72.5071 27.7696 73.0849 31.1935 71.0596 31.8003C70.7227 31.8997 70.3596 31.9921 69.9785 32.0795Z" fill="#E98862"/>
<path d="M72.5876 28.5961C74.9211 28.7796 77.9167 27.7709 78.4806 24.5984L78.9896 21.7359C79.5535 18.5636 78.3752 15.6901 75.4434 15.1491C72.5115 14.608 69.8626 16.7754 69.2989 19.9477L69.0737 21.215C69.0037 21.6515 68.963 22.0923 68.952 22.5344C68.9142 23.7028 68.8613 25.4798 69.4288 26.785C69.9644 28.0173 71.0968 28.479 72.5876 28.5961Z" fill="#E98862"/>
<path d="M77.8207 14.9865C76.8944 14.6922 75.9335 14.5256 74.9638 14.4913C74.9319 14.3187 74.8597 14.1565 74.7531 14.0185C74.6466 13.8805 74.5089 13.7707 74.3518 13.6985C73.8391 13.4946 73.2129 13.8231 72.7963 14.4564C72.5788 14.0777 72.2388 13.7879 71.8345 13.6368C70.6867 13.2728 70.6298 14.9525 70.6298 14.9525C70.6298 14.9525 68.8099 13.123 68.7531 15.4564C68.6843 18.2797 69.1934 19.1084 69.5649 19.3162C70.2987 19.7291 70.845 19.6592 71.1354 20.2663C72.0148 22.1054 71.1529 27.2856 72.17 27.9342C73.7291 28.9278 76.9215 28.9621 77.9584 28.8867C78.3572 28.857 78.7306 28.3865 78.8984 28.017C79.4407 26.8236 80.6503 24.1182 80.9869 22.9992C81.6094 20.9353 81.5626 16.2313 77.8207 14.9865Z" fill="#0C0C0C"/>
<path d="M71.4745 26.0843C72.3747 25.9848 73 24.9229 72.9025 24.0059C72.805 23.0889 72.0212 22.6637 71.121 22.7634L70.7226 23.4292L70.7009 26.1701L71.4745 26.0843Z" fill="#E98862"/>
<path d="M63.4891 41.9831C63.6545 43.9623 64.4589 56.3103 64.6178 58.7482H86.5295C86.6532 56.5495 87.2089 46.9348 87.6784 42.6351C88.1265 38.5321 89.0055 36.4779 88.3611 35.2649C87.3082 33.2824 84.431 32.1369 82.4691 31.8663C81.271 31.7011 79.4691 31.5826 79.4691 31.5826H71.0322C70.2308 31.5826 65.5584 31.9668 64.5257 32.7771C62.7199 34.1947 63.1384 37.7892 63.4891 41.9831Z" fill="#0DA6C2"/>
<path d="M63.1866 39.5039C63.168 39.5039 63.15 39.4967 63.1365 39.4836C63.1229 39.4706 63.1148 39.4528 63.1138 39.4338L62.937 36.291C62.9359 36.2714 62.9425 36.2521 62.9553 36.2374C62.9682 36.2227 62.9862 36.2138 63.0055 36.2126C63.0247 36.2117 63.0435 36.2185 63.0579 36.2316C63.0723 36.2446 63.0811 36.2628 63.0824 36.2824L63.2592 39.4254C63.2597 39.4351 63.2584 39.4448 63.2552 39.4541C63.2521 39.4633 63.2472 39.4718 63.2408 39.479C63.2344 39.4863 63.2267 39.4922 63.2181 39.4965C63.2095 39.5007 63.2001 39.5032 63.1906 39.5037L63.1866 39.5039Z" fill="#0C0C0C"/>
<path d="M91.2666 58.6194C91.911 58.6193 92.5459 58.4606 93.1172 58.1567C93.6885 57.8529 94.1793 57.4129 94.5478 56.8743C94.9163 56.3356 95.1516 55.7143 95.2338 55.0631C95.3159 54.4118 95.2424 53.75 95.0195 53.134C94.7932 52.5085 89.4862 38.1911 88.476 35.5382L80.9951 38.6261C81.5634 40.1176 83.6213 45.7714 85.2748 50.326L82.5277 50.0218L81.6631 58.1252L90.8338 58.5954C90.9775 58.6113 91.122 58.6194 91.2666 58.6194Z" fill="#0DA6C2"/>
<path d="M86.9972 42.7189L86.4589 58.7468L86.6045 58.7519L87.1429 42.724L86.9972 42.7189Z" fill="#0C0C0C"/>
<path d="M47.4755 25.6233L40.8419 28.6043C40.6982 28.6688 40.5353 28.6726 40.3889 28.6147C40.2425 28.5569 40.1247 28.4422 40.0613 28.2958L37.6042 22.6202L38.5632 20.2366L44.0719 17.7611C44.1431 17.7292 44.2197 17.7118 44.2974 17.71C44.3751 17.7082 44.4524 17.7221 44.5249 17.7507C44.5973 17.7793 44.6636 17.8223 44.7198 17.877C44.776 17.9317 44.821 17.9972 44.8524 18.0696L47.7783 24.8282C47.8417 24.9746 47.8453 25.1405 47.7885 25.2896C47.7318 25.4387 47.6192 25.5588 47.4755 25.6233Z" fill="#0CBC8B"/>
<path opacity="0.29" d="M38.563 20.2369L37.604 22.6205L39.2927 21.8959L38.563 20.2369Z" fill="#FFFFFA"/>
<g opacity="0.88">
<path d="M45.0435 20.8667C45.0378 20.8708 45.0317 20.8743 45.0253 20.8771L39.0617 23.5291C39.0371 23.5378 39.0101 23.5367 38.9862 23.526C38.9623 23.5154 38.9433 23.496 38.9328 23.4716C38.9223 23.4473 38.9212 23.4198 38.9297 23.3947C38.9382 23.3696 38.9557 23.3487 38.9787 23.3361L44.9424 20.6841C44.9659 20.6738 44.9923 20.6728 45.0165 20.6811C45.0408 20.6895 45.0611 20.7067 45.0737 20.7294C45.0862 20.7521 45.0901 20.7788 45.0845 20.8042C45.0789 20.8297 45.0643 20.8521 45.0435 20.8673V20.8667Z" fill="white"/>
<path d="M45.5477 22.0159C45.542 22.02 45.536 22.0235 45.5296 22.0263L39.5659 24.6783C39.5412 24.6874 39.5139 24.6866 39.4897 24.6761C39.4655 24.6655 39.4462 24.6459 39.4356 24.6214C39.4251 24.5968 39.4241 24.5691 39.4329 24.5438C39.4417 24.5185 39.4596 24.4976 39.483 24.4853L45.4465 21.8333C45.4701 21.8226 45.4968 21.8212 45.5212 21.8295C45.5457 21.8378 45.5663 21.8551 45.579 21.878C45.5916 21.9009 45.5954 21.9278 45.5896 21.9534C45.5838 21.979 45.5689 22.0015 45.5477 22.0165V22.0159Z" fill="white"/>
<path d="M46.1091 23.2791C46.1035 23.2832 46.0974 23.2866 46.0911 23.2895L40.1274 25.9415C40.1026 25.9506 40.0754 25.9498 40.0512 25.9393C40.027 25.9287 40.0077 25.9091 39.9971 25.8846C39.9865 25.86 39.9856 25.8323 39.9944 25.807C40.0032 25.7817 40.0211 25.7608 40.0445 25.7485L46.008 23.0965C46.0316 23.0858 46.0582 23.0844 46.0827 23.0927C46.1072 23.101 46.1278 23.1183 46.1404 23.1412C46.1531 23.1641 46.1569 23.191 46.1511 23.2166C46.1453 23.2422 46.1303 23.2647 46.1091 23.2797V23.2791Z" fill="white"/>
<path d="M43.305 25.8819C43.2992 25.886 43.2931 25.8895 43.2867 25.8923L40.6416 27.0685C40.6169 27.0772 40.59 27.0762 40.5661 27.0655C40.5422 27.0549 40.5231 27.0354 40.5126 27.0111C40.5021 26.9868 40.501 26.9593 40.5096 26.9342C40.5181 26.9091 40.5355 26.8881 40.5585 26.8755L43.2038 25.6993C43.2274 25.6891 43.2538 25.688 43.278 25.6964C43.3022 25.7048 43.3226 25.722 43.3351 25.7447C43.3477 25.7674 43.3515 25.794 43.346 25.8195C43.3404 25.8449 43.3258 25.8674 43.305 25.8825V25.8819Z" fill="white"/>
</g>
<path d="M41.9925 25.1054C41.9623 25.0236 41.916 24.9489 41.8564 24.886C41.7969 24.823 41.7255 24.7731 41.6464 24.7392C41.5673 24.7053 41.4822 24.6882 41.3964 24.6889C41.3107 24.6896 41.2259 24.7081 41.1474 24.7433C40.9978 24.8168 40.8812 24.9453 40.821 25.103C40.7609 25.2607 40.7617 25.4358 40.8233 25.5929L41.0333 26.4792C41.0777 26.6666 41.0533 26.8642 40.9645 27.0345C40.8758 27.2049 40.729 27.3363 40.5517 27.4039C40.3779 27.4702 40.1865 27.4708 40.0124 27.4056C39.8382 27.3403 39.6928 27.2136 39.6026 27.0483C39.6026 27.0483 38.2943 24.2326 38.2695 24.118C38.0548 24.3313 37.6805 24.8561 37.6037 25.2517C37.6009 25.2538 37.9826 28.4138 38.1959 28.6365L40.4095 32.1148C41.3144 33.0594 44.3518 31.4877 44.3518 31.4877L41.9925 25.1054Z" fill="#E98862"/>
<path d="M51.0878 51.0771C50.3465 51.0771 49.6179 50.8818 48.9726 50.5101C48.3273 50.1385 47.7874 49.6032 47.4051 48.9562L37.8763 32.8296L45.2421 28.3126L52.4855 40.5728L64.5262 32.7789L69.6275 39.7474L53.4142 50.3812C52.7204 50.8358 51.9127 51.0774 51.0878 51.0771Z" fill="#0DA6C2"/>
<path d="M63.6113 43.7626C63.5949 43.7626 63.5791 43.757 63.5662 43.7468C63.5534 43.7365 63.5443 43.7221 63.5405 43.706C63.5366 43.6898 63.5382 43.6728 63.5449 43.6577C63.5517 43.6425 63.5632 43.6301 63.5777 43.6225L65.6583 42.5287C65.6754 42.5196 65.6954 42.5179 65.7139 42.5239C65.7323 42.5299 65.7476 42.5431 65.7565 42.5606C65.7653 42.5781 65.767 42.5985 65.7612 42.6172C65.7553 42.636 65.7423 42.6516 65.7251 42.6606L63.6446 43.7543C63.6343 43.7597 63.6229 43.7626 63.6113 43.7626Z" fill="#0C0C0C"/>
<path d="M69.8705 32.0458L70.9034 30.4008C70.9486 30.3287 71.0109 30.2694 71.0846 30.2283C71.1582 30.1872 71.2409 30.1656 71.3248 30.1656H79.1107C79.1808 30.1656 79.2502 30.1806 79.3142 30.2097C79.3783 30.2388 79.4357 30.2813 79.4826 30.3344L80.9949 32.0458H69.8705Z" fill="#367CFF"/>
<path d="M9.7311 97.933L9.47949 97.961L12.5859 126.882L12.8375 126.854L9.7311 97.933Z" fill="#292A2E"/>
<path d="M17.7768 110.559L16.2485 125.962L16.5004 125.988L18.0286 110.585L17.7768 110.559Z" fill="#292A2E"/>
<path d="M20.4048 124.1H9.06522V127.849H20.4048V124.1Z" fill="#292A2E"/>
<path opacity="0.2" d="M20.4048 124.1H9.06522V127.849H20.4048V124.1Z" fill="white"/>
<path d="M27.2409 117.196C29.389 114.288 28.365 109.81 24.9536 107.195C21.5423 104.58 17.0355 104.818 14.8873 107.727C12.7392 110.636 13.7632 115.113 17.1745 117.728C20.5859 120.343 25.0927 120.105 27.2409 117.196Z" fill="#0CBC8B"/>
<path opacity="0.2" d="M27.2409 117.196C29.389 114.288 28.365 109.81 24.9536 107.195C21.5423 104.58 17.0355 104.818 14.8873 107.727C12.7392 110.636 13.7632 115.113 17.1745 117.728C20.5859 120.343 25.0927 120.105 27.2409 117.196Z" fill="white"/>
<path opacity="0.5" d="M27.2404 117.197C27.0962 117.393 26.9388 117.579 26.7693 117.753C24.4047 119.292 20.9144 119.05 18.1455 116.927C14.7344 114.313 13.7106 109.835 15.8591 106.926C16.0035 106.73 16.1605 106.545 16.329 106.37C18.6948 104.83 22.184 105.073 24.954 107.195C28.3649 109.811 29.3887 114.288 27.2404 117.197Z" fill="white"/>
<path d="M11.4153 106.161C14.7947 103.503 15.7132 98.9454 13.4668 95.9805C11.2204 93.0156 6.65981 92.7666 3.2804 95.4242C-0.0990081 98.0819 -1.0175 102.64 1.22889 105.605C3.47528 108.57 8.03589 108.819 11.4153 106.161Z" fill="#0CBC8B"/>
<path opacity="0.2" d="M10.3458 105.398C7.72858 107.458 4.40248 107.772 1.99148 106.431C1.71244 106.181 1.45759 105.904 1.23041 105.604C-1.0171 102.64 -0.0986579 98.0813 3.28062 95.4242C5.89781 93.3659 9.22391 93.0509 11.6337 94.3904C11.9134 94.6409 12.1686 94.9183 12.3958 95.2187C14.6428 98.1828 13.7243 102.741 10.3458 105.398Z" fill="white"/>
</g>
<defs>
<clipPath id="clip0_16_960">
<rect width="104" height="128" fill="white"/>
</clipPath>
</defs>
</svg>
